<svg width="91" height="48" viewBox="0 0 91 48" fill="none" xmlns="http://www.w3.org/2000/svg">
<path d="M5.00383 46.8307C5.34245 32.8735 12.7531 20.0379 24.671 12.7661L34.1959 29.2637C28.1624 33.1212 24.3776 39.6768 24.0536 46.8307L5.00383 46.8307Z" fill="#B90009" stroke="white" stroke-width="2"/>
<path d="M35.928 28.2638L26.4031 11.7662C38.6597 5.08091 53.4809 5.08091 65.7375 11.7662L56.2126 28.2638C49.8552 24.9674 42.2854 24.9674 35.928 28.2638Z" fill="#FF9A00" stroke="white" stroke-width="2"/>
<path d="M57.9446 29.2637L67.4695 12.7661C79.3874 20.0379 86.798 32.8735 87.1367 46.8307L68.0869 46.8307C67.7629 39.6768 63.978 33.1212 57.9446 29.2637Z" fill="#71974C" stroke="white" stroke-width="2"/>
<path d="M24.879 4.48645L25.6102 4.18895L27.9389 6.82819L27.7634 3.31284L28.4946 3.01534L28.6858 7.82277L28.0985 8.0617L24.879 4.48645ZM24.4846 4.64691L25.2129 4.35058L26.5658 7.29628L27.0507 8.48804L26.19 8.83825L24.4846 4.64691ZM28.1607 3.15121L28.8919 2.85371L30.5972 7.04505L29.7336 7.39643L29.2487 6.20466L28.1607 3.15121Z" fill="#4F4F4F"/>
<path d="M35.2136 3.29492L35.2685 3.50222C35.3565 3.83469 35.3905 4.14505 35.3704 4.43329C35.3503 4.72153 35.2828 4.98053 35.1679 5.21029C35.0524 5.43804 34.8935 5.63122 34.6912 5.78983C34.4909 5.9479 34.2525 6.06354 33.9761 6.13674C33.7017 6.2094 33.4374 6.2269 33.1831 6.18922C32.9308 6.15102 32.6971 6.0618 32.4821 5.92156C32.2665 5.77932 32.0776 5.58821 31.9155 5.34824C31.7554 5.10773 31.6313 4.82124 31.5432 4.48877L31.4883 4.28148C31.3997 3.947 31.3658 3.63664 31.3864 3.3504C31.4065 3.06216 31.474 2.80316 31.5889 2.5734C31.7059 2.34311 31.8645 2.14893 32.0648 1.99086C32.2671 1.83225 32.5055 1.71662 32.7799 1.64395C33.0563 1.57075 33.3206 1.55326 33.5729 1.59146C33.8273 1.62914 34.0612 1.71936 34.2748 1.86213C34.4903 2.00437 34.6782 2.19574 34.8383 2.43625C34.9999 2.67422 35.125 2.96045 35.2136 3.29492ZM34.3582 3.74328L34.3017 3.52998C34.2402 3.29765 34.1651 3.09893 34.0763 2.93382C33.9876 2.76871 33.8863 2.63694 33.7723 2.53852C33.6584 2.44009 33.5344 2.37649 33.4003 2.34769C33.2657 2.3169 33.1223 2.32166 32.97 2.36197C32.8178 2.40228 32.6909 2.46913 32.5891 2.56251C32.4889 2.65336 32.4136 2.76974 32.3633 2.91166C32.315 3.05304 32.2932 3.21743 32.2978 3.40482C32.3024 3.59221 32.3355 3.80207 32.397 4.0344L32.4535 4.2477C32.5145 4.47803 32.5896 4.67675 32.6789 4.84386C32.7676 5.00897 32.8692 5.14174 32.9837 5.24217C33.0976 5.34059 33.2219 5.4052 33.3565 5.436C33.4911 5.46679 33.6346 5.46203 33.7868 5.42172C33.939 5.38141 34.066 5.31456 34.1677 5.22118C34.2694 5.1278 34.3444 5.01042 34.3927 4.86903C34.4405 4.72564 34.462 4.56025 34.4574 4.37286C34.4523 4.18347 34.4192 3.97361 34.3582 3.74328Z" fill="#4F4F4F"/>
<path d="M38.6838 5.08615L37.7092 5.23003L37.6091 4.50969L38.5776 4.36671C38.8195 4.33101 39.0154 4.24658 39.1654 4.11344C39.315 3.97825 39.4163 3.79889 39.4692 3.57537C39.5241 3.35154 39.5295 3.09 39.4853 2.79075L39.4531 2.57246C39.4192 2.3429 39.3648 2.14464 39.2899 1.97768C39.217 1.81042 39.1247 1.67431 39.0128 1.56934C38.901 1.46438 38.772 1.39232 38.6259 1.35315C38.4795 1.31194 38.3171 1.30449 38.1388 1.33082L37.1365 1.47879L37.0299 0.75628L38.0322 0.60831C38.3314 0.564131 38.6126 0.574976 38.8757 0.640845C39.1406 0.704362 39.3782 0.816939 39.5885 0.978577C39.7987 1.14022 39.9724 1.34495 40.1095 1.59278C40.2484 1.83826 40.3414 2.12088 40.3886 2.44063L40.4199 2.65277C40.4668 2.97047 40.4594 3.26791 40.3977 3.54509C40.3381 3.82197 40.231 4.06817 40.0764 4.28367C39.9236 4.49682 39.7287 4.67324 39.4917 4.81294C39.2564 4.95029 38.9872 5.04136 38.6838 5.08615ZM37.571 0.676394L38.2318 5.15287L37.3095 5.28904L36.6486 0.812563L37.571 0.676394Z" fill="#4F4F4F"/>
<path d="M45.3326 3.7943L45.3631 4.5209L42.9566 4.62173L42.9262 3.89514L45.3326 3.7943ZM43.0715 0.0879557L43.2609 4.60898L42.3294 4.64802L42.14 0.126989L43.0715 0.0879557ZM44.9372 1.85434L44.9669 2.5623L42.874 2.65L42.8444 1.94203L44.9372 1.85434ZM45.1705 0L45.2011 0.729699L42.7978 0.830406L42.7672 0.100707L45.1705 0Z" fill="#4F4F4F"/>
<path d="M47.1434 0.0134981L48.8276 0.119436C49.1729 0.141156 49.4664 0.211516 49.708 0.330513C49.9517 0.449641 50.1344 0.614754 50.2561 0.825852C50.3777 1.03695 50.4293 1.29035 50.4107 1.58604C50.3954 1.82797 50.341 2.03319 50.2474 2.20168C50.1559 2.36823 50.0321 2.50473 49.876 2.61116C49.722 2.71565 49.5436 2.79578 49.3408 2.85153L49.0364 2.98808L47.5724 2.89599L47.6118 2.16981L48.7005 2.23828C48.8639 2.24856 49.0012 2.22813 49.1123 2.17699C49.2235 2.12586 49.3092 2.05029 49.3695 1.95028C49.4318 1.8504 49.4673 1.73223 49.4759 1.59575C49.485 1.451 49.4659 1.32421 49.4188 1.21537C49.3717 1.10653 49.2951 1.02075 49.189 0.958028C49.0829 0.895304 48.9472 0.858739 48.7817 0.848334L48.028 0.800926L47.7898 4.5881L46.8593 4.52957L47.1434 0.0134981ZM49.3841 4.68838L48.4809 2.6106L49.4646 2.66625L50.3825 4.70758L50.3797 4.751L49.3841 4.68838Z" fill="#4F4F4F"/>
<path d="M54.3655 1.55976L52.5001 5.03911L51.5239 4.86637L53.9679 0.703534L54.5891 0.813456L54.3655 1.55976ZM54.7188 5.43168L54.1574 1.52294L54.1943 0.743604L54.8217 0.854609L55.6981 5.60496L54.7188 5.43168ZM54.9572 3.76326L54.83 4.48243L52.4766 4.06603L52.6038 3.34686L54.9572 3.76326Z" fill="#4F4F4F"/>
<path d="M58.3683 6.33308L57.4235 6.05379L57.6356 5.35815L58.5744 5.63569C58.8089 5.705 59.0222 5.71079 59.2142 5.65306C59.4069 5.59334 59.5742 5.4732 59.7161 5.29264C59.8601 5.11266 59.9749 4.87762 60.0607 4.58754L60.1233 4.37594C60.189 4.15341 60.2231 3.95065 60.2253 3.76767C60.2295 3.58527 60.203 3.42295 60.1456 3.28069C60.0883 3.13843 60.0016 3.01882 59.8855 2.92184C59.77 2.82288 59.6258 2.74785 59.453 2.69675L58.4814 2.40953L58.6884 1.70915L59.66 1.99637C59.9501 2.08213 60.2007 2.21022 60.4117 2.38063C60.6253 2.54965 60.7935 2.75169 60.9163 2.98676C61.0391 3.22183 61.1106 3.48062 61.1308 3.76313C61.1536 4.04425 61.1191 4.33978 61.0275 4.64974L60.9667 4.85538C60.8757 5.16335 60.7439 5.4301 60.5713 5.65564C60.4008 5.88177 60.2001 6.06009 59.9692 6.19061C59.7409 6.31973 59.4899 6.39783 59.2161 6.42493C58.945 6.45063 58.6623 6.42001 58.3683 6.33308ZM59.213 1.86422L57.9302 6.20357L57.0361 5.93925L58.3189 1.5999L59.213 1.86422Z" fill="#4F4F4F"/>
<path d="M66.206 6.72044L66.1226 6.91797C65.9887 7.23479 65.8256 7.50102 65.6333 7.71666C65.441 7.9323 65.2291 8.09581 64.9976 8.20718C64.7669 8.31664 64.523 8.37218 64.2659 8.37377C64.0108 8.37617 63.7515 8.32173 63.4881 8.21046C63.2266 8.09999 63.0069 7.95203 62.8288 7.76659C62.6527 7.58196 62.5225 7.36838 62.4382 7.12587C62.3548 6.88145 62.3224 6.61473 62.3411 6.32571C62.3616 6.0375 62.4388 5.73499 62.5727 5.41817L62.6561 5.22063C62.7908 4.90191 62.9539 4.63568 63.1454 4.42195C63.3377 4.20631 63.5496 4.0428 63.7811 3.93142C64.0145 3.82086 64.2588 3.76437 64.514 3.76197C64.7711 3.76038 65.0303 3.81481 65.2918 3.92528C65.5552 4.03656 65.775 4.18451 65.9511 4.36915C66.1292 4.55459 66.259 4.76912 66.3405 5.01273C66.4239 5.25715 66.4553 5.52347 66.4348 5.81168C66.4169 6.09879 66.3407 6.40171 66.206 6.72044ZM65.2551 6.55149L65.341 6.34823C65.4346 6.12684 65.4968 5.9237 65.5276 5.73882C65.5585 5.55393 65.559 5.3877 65.5292 5.24013C65.4993 5.09256 65.4401 4.96636 65.3517 4.86153C65.2641 4.75479 65.1478 4.67078 65.0027 4.60949C64.8577 4.54821 64.7164 4.52337 64.5788 4.53496C64.4439 4.54544 64.3131 4.59141 64.1865 4.67287C64.0618 4.75512 63.9439 4.87176 63.8329 5.02278C63.7218 5.1738 63.6195 5.36 63.526 5.58139L63.4401 5.78465C63.3474 6.00413 63.2852 6.20727 63.2535 6.39406C63.2226 6.57895 63.2217 6.74613 63.2508 6.89561C63.2806 7.04318 63.3394 7.17034 63.427 7.27708C63.5146 7.38382 63.6309 7.46783 63.776 7.52911C63.921 7.59039 64.0623 7.61524 64.1999 7.60365C64.3375 7.59206 64.4687 7.54513 64.5934 7.46288C64.719 7.37871 64.8372 7.26112 64.9483 7.1101C65.0601 6.95717 65.1624 6.77097 65.2551 6.55149Z" fill="#4F4F4F"/>
<path d="M2.65735 34.0485L4.39809 34.4792C4.46364 34.5679 4.52702 34.6957 4.58824 34.8624C4.64744 35.0285 4.68337 35.2327 4.69603 35.4749C4.70869 35.7171 4.67547 35.9981 4.59636 36.3178C4.52621 36.6014 4.41602 36.8484 4.26579 37.0589C4.11354 37.2688 3.92602 37.4358 3.70321 37.56C3.4809 37.6821 3.22782 37.7561 2.94397 37.782C2.65811 37.8073 2.34623 37.7782 2.00834 37.6946L1.7338 37.6267C1.39591 37.5431 1.10592 37.4255 0.863842 37.2738C0.622258 37.1201 0.43111 36.9395 0.290396 36.7318C0.149683 36.5241 0.0599229 36.2959 0.0211171 36.0473C-0.0176888 35.7986 -0.00301089 35.5365 0.0651507 35.261C0.159681 34.8788 0.299645 34.5805 0.485042 34.366C0.668428 34.151 0.885655 34.0062 1.13672 33.9317C1.38628 33.8547 1.65558 33.836 1.94462 33.8754L1.72744 34.7534C1.57314 34.7387 1.43296 34.7488 1.30692 34.7838C1.18088 34.8188 1.07225 34.8869 0.981049 34.9881C0.89034 35.0873 0.822349 35.2285 0.777073 35.4115C0.739759 35.5623 0.737599 35.7048 0.770593 35.8389C0.802074 35.9705 0.867197 36.0911 0.96596 36.201C1.06472 36.3108 1.19637 36.4084 1.3609 36.4939C1.52543 36.5795 1.72335 36.6508 1.95464 36.708L2.23521 36.7775C2.4645 36.8342 2.67311 36.8623 2.86104 36.8618C3.04697 36.8609 3.21096 36.8321 3.35303 36.7754C3.49359 36.7163 3.60996 36.6298 3.70214 36.516C3.79432 36.4022 3.86155 36.2599 3.90384 36.0889C3.93917 35.9461 3.95645 35.8245 3.9557 35.724C3.95545 35.6214 3.94544 35.5368 3.92568 35.47C3.9044 35.4007 3.88165 35.346 3.85743 35.3059L3.07908 35.1133L2.87459 35.9399L2.22898 35.7802L2.65735 34.0485Z" fill="#4F4F4F"/>
<path d="M1.23445 31.415L1.84589 29.8421C1.97126 29.5196 2.12726 29.2613 2.3139 29.0671C2.50129 28.8709 2.71401 28.7469 2.95205 28.695C3.1901 28.643 3.44719 28.6707 3.72334 28.778C3.94928 28.8659 4.12834 28.9799 4.26052 29.1202C4.39153 29.2579 4.48408 29.4172 4.53817 29.5983C4.59108 29.7767 4.61336 29.971 4.60502 30.1811L4.64288 30.5126L4.11138 31.8798L3.43131 31.6221L3.82656 30.6054C3.88586 30.4529 3.908 30.3159 3.89296 30.1944C3.87793 30.073 3.83189 29.9684 3.75486 29.8806C3.67857 29.791 3.5767 29.7214 3.44925 29.6718C3.31407 29.6193 3.18748 29.599 3.06948 29.6109C2.95147 29.6228 2.84651 29.6698 2.75458 29.7519C2.66265 29.834 2.58666 29.9522 2.52661 30.1067L2.25298 30.8106L5.78979 32.1855L5.45197 33.0545L1.23445 31.415ZM6.36858 30.6966L4.1148 30.9275L4.46597 30.007L6.68949 29.7511L6.73004 29.7668L6.36858 30.6966Z" fill="#4F4F4F"/>
<path d="M4.95832 24.9759L7.66303 27.8517L7.18858 28.7222L4.02005 25.0804L4.32197 24.5264L4.95832 24.9759ZM8.74133 25.8733L4.85718 25.1615L4.13011 24.8785L4.43501 24.3191L9.21727 25.0001L8.74133 25.8733ZM7.23554 25.1163L7.87681 25.4658L6.73307 27.5643L6.09179 27.2148L7.23554 25.1163Z" fill="#4F4F4F"/>
<path d="M10.1594 21.9776L7.88647 19.0132L8.49574 18.1728L11.2344 22.1044L10.8331 22.658L10.1594 21.9776ZM6.68437 20.6713L10.2068 21.9122L11.0666 22.3359L10.6617 22.8945L6.07875 21.5067L6.68437 20.6713Z" fill="#4F4F4F"/>
<path d="M14.5509 17.1083L15.0846 17.6024L13.4484 19.3698L12.9147 18.8758L14.5509 17.1083ZM10.3347 16.0724L13.6553 19.1463L13.0219 19.8305L9.70133 16.7566L10.3347 16.0724ZM12.9032 16.0107L13.4232 16.4921L12.0002 18.0292L11.4802 17.5478L12.9032 16.0107ZM11.7619 14.5307L12.2979 15.0268L10.6637 16.792L10.1278 16.2959L11.7619 14.5307Z" fill="#4F4F4F"/>
<path d="M80.3406 20.2834L79.7792 20.7457L78.3312 18.9871L78.8926 18.5248L80.3406 20.2834ZM82.0161 16.3436L78.5228 19.2198L77.9302 18.5L81.4235 15.6238L82.0161 16.3436Z" fill="#4F4F4F"/>
<path d="M82.9583 24.0128L82.3572 24.4221L81.0017 22.4311L81.6028 22.0219L82.9583 24.0128ZM84.9135 20.1363L81.1731 22.6829L80.6484 21.9122L84.3888 19.3656L84.9135 20.1363ZM84.3975 22.6532L83.8118 23.052L82.633 21.3205L83.2187 20.9217L84.3975 22.6532ZM86.0958 21.8729L85.4921 22.2839L84.1384 20.2956L84.7421 19.8846L86.0958 21.8729Z" fill="#4F4F4F"/>
<path d="M84.756 26.6782L88.4093 25.899L88.9066 26.8101L84.1797 27.5946L83.8522 26.9944L84.756 26.6782ZM87.4283 24.1012L84.7947 26.7491L84.0428 27.3436L83.7123 26.7379L86.9341 23.1954L87.4283 24.1012Z" fill="#4F4F4F"/>
<path d="M87.3446 32.6992L86.6751 32.9833L85.7342 30.7661L86.4037 30.482L87.3446 32.6992ZM90.0187 29.2789L85.8532 31.0465L85.489 30.1882L89.6545 28.4206L90.0187 29.2789ZM89.0215 31.6467L88.3692 31.9234L87.5509 29.9952L88.2032 29.7184L89.0215 31.6467ZM90.8394 31.2128L90.1671 31.4981L89.2274 29.2838L89.8997 28.9985L90.8394 31.2128Z" fill="#4F4F4F"/>
</svg>
