<?xml version="1.0" encoding="UTF-8" standalone="no"?>
<svg
   version="1.0"
   width="2551.000000pt"
   height="625.000000pt"
   viewBox="0 0 2551.000000 625.000000"
   preserveAspectRatio="xMidYMid meet"
   id="svg91"
   sodipodi:docname="logo_sd_tecno.svg"
   inkscape:version="1.1.1 (3bf5ae0d25, 2021-09-20)"
   xmlns:inkscape="http://www.inkscape.org/namespaces/inkscape"
   xmlns:sodipodi="http://sodipodi.sourceforge.net/DTD/sodipodi-0.dtd"
   xmlns="http://www.w3.org/2000/svg"
   xmlns:svg="http://www.w3.org/2000/svg">
  <defs
     id="defs95">
    <rect
       x="1721.5888"
       y="55.792228"
       width="1315.7619"
       height="286.76122"
       id="rect5654" />
  </defs>
  <sodipodi:namedview
     id="namedview93"
     pagecolor="#ffffff"
     bordercolor="#666666"
     borderopacity="1.0"
     inkscape:pageshadow="2"
     inkscape:pageopacity="0.0"
     inkscape:pagecheckerboard="0"
     inkscape:document-units="pt"
     showgrid="false"
     inkscape:zoom="0.25093101"
     inkscape:cx="603.75161"
     inkscape:cy="117.56219"
     inkscape:window-width="1920"
     inkscape:window-height="1009"
     inkscape:window-x="1912"
     inkscape:window-y="-8"
     inkscape:window-maximized="1"
     inkscape:current-layer="svg91" />
  <metadata
     id="metadata53">
Created by potrace 1.15, written by Peter Selinger 2001-2017
</metadata>
  <g
     transform="translate(0.000000,625.000000) scale(0.100000,-0.100000)"
     fill="#000000"
     stroke="none"
     id="g89">
    <path
       d="M6397 3381 c-445 -967 -811 -1768 -813 -1778 -4 -16 3 -23 38 -36 24 -10 48 -17 54 -17 5 0 33 51 61 113 45 100 277 604 1274 2773 164 358 299 655 299 661 0 10 -74 43 -95 43 -6 0 -374 -792 -818 -1759z"
       id="path55" />
    <path
       d="M2080 4910 c-272 -73 -473 -277 -541 -550 -18 -72 -21 -103 -16 -215 6 -142 22 -208 76 -314 69 -136 160 -230 301 -312 117 -68 215 -93 370 -93 138 0 237 21 340 72 68 34 73 55 25 102 -34 33 -37 34 -68 21 -153 -62 -169 -66 -292 -66 -91 0 -133 5 -175 19 -258 87 -431 301 -455 561 -15 160 53 340 178 472 202 212 488 258 752 120 89 -47 201 -164 252 -262 94 -183 98 -363 12 -555 l-32 -71 38 -39 c22 -22 45 -40 51 -40 31 0 105 179 123 297 38 249 -34 475 -209 654 -86 87 -179 146 -295 185 -69 24 -99 28 -220 31 -116 2 -153 0 -215 -17z"
       id="path57" />
    <path
       d="M4041 4911 c-207 -53 -402 -212 -491 -403 -55 -117 -73 -215 -68 -363 4 -106 10 -145 32 -211 32 -95 66 -158 86 -161 8 -1 33 13 55 33 38 34 39 35 26 67 -8 18 -27 70 -44 117 -57 160 -38 346 53 500 136 230 403 355 654 306 293 -58 516 -325 516 -616 0 -97 -22 -186 -67 -280 -51 -105 -178 -231 -283 -282 -110 -53 -201 -72 -313 -65 -101 7 -153 20 -240 63 l-59 29 -34 -40 c-46 -54 -44 -70 14 -99 185 -93 423 -109 614 -40 206 75 379 248 452 451 144 405 -65 841 -469 979 -69 24 -98 28 -220 31 -111 2 -155 -1 -214 -16z"
       id="path59" />
    <path
       d="M11282 4817 l-72 -73 2 -1254 3 -1255 68 -3 c37 -2 74 1 82 6 14 7 16 164 18 1330 2 1179 0 1322 -13 1322 -9 0 -48 -33 -88 -73z"
       id="path61" />
    <path
       d="M15937 4754 c-4 -4 -7 -392 -7 -862 0 -584 -3 -868 -11 -896 -52 -197 -86 -263 -198 -379 -75 -78 -193 -167 -221 -167 -6 0 -18 -4 -28 -9 -75 -38 -107 -44 -276 -48 -96 -3 -153 0 -159 6 -6 6 -21 11 -34 11 -26 0 -52 10 -152 59 -82 40 -218 159 -274 240 -46 68 -95 174 -117 257 -22 79 -28 275 -11 330 5 16 14 49 21 74 35 123 146 286 247 363 101 76 250 147 315 149 13 0 45 7 72 14 64 18 113 18 166 -1 23 -8 57 -15 75 -15 27 0 37 6 55 37 12 20 22 55 23 77 l2 40 -60 10 c-71 12 -281 13 -345 2 -112 -20 -227 -71 -356 -157 -62 -42 -208 -198 -245 -264 -45 -78 -89 -172 -89 -190 0 -7 -4 -16 -9 -19 -32 -20 -50 -443 -20 -462 5 -3 9 -18 9 -34 0 -16 6 -41 14 -57 8 -15 36 -72 62 -127 50 -102 121 -191 231 -288 103 -92 257 -164 423 -198 84 -18 360 -2 385 21 5 5 17 9 27 9 25 0 171 69 239 113 113 72 309 295 309 351 0 8 4 18 10 21 10 6 31 50 48 100 38 114 37 94 37 1005 l0 885 -75 3 c-42 1 -79 0 -83 -4z"
       id="path63" />
    <path
       d="M2165 4401 c-87 -40 -135 -120 -135 -224 0 -157 123 -263 283 -243 l53 7 83 -93 c46 -51 176 -193 289 -316 l205 -223 1 -117 1 -117 -75 -80 c-41 -44 -77 -82 -80 -85 -3 -3 -29 -32 -59 -65 -30 -33 -80 -87 -110 -120 -31 -33 -99 -107 -152 -165 l-97 -105 -75 3 c-92 5 -136 -9 -190 -57 -55 -49 -77 -101 -77 -182 -1 -263 342 -343 466 -109 15 27 19 55 18 123 l-1 88 176 162 c97 88 237 219 312 289 l137 128 53 -11 c37 -7 71 -8 109 -1 l55 10 50 -46 c176 -164 309 -286 440 -405 l150 -137 -4 -75 c-2 -66 1 -83 24 -131 87 -178 349 -175 439 4 46 90 24 218 -48 288 -55 52 -112 69 -211 61 l-73 -5 -33 36 c-18 21 -130 142 -249 271 -118 128 -232 253 -253 277 l-39 44 0 114 -1 114 175 188 c96 104 228 248 294 320 l119 131 40 -9 c110 -26 225 27 278 127 34 62 31 175 -6 237 -48 83 -115 118 -221 118 -76 0 -129 -24 -177 -77 -49 -54 -63 -100 -57 -192 l5 -76 -62 -55 c-139 -125 -297 -271 -500 -460 l-70 -65 -117 0 -117 1 -108 98 c-59 55 -140 129 -178 165 -39 36 -113 104 -165 151 -192 172 -182 160 -170 200 32 111 -20 235 -120 286 -58 30 -166 32 -225 5z"
       id="path65" />
    <path
       d="M9995 4058 c-190 -35 -368 -132 -505 -275 -86 -89 -101 -109 -158 -213 -61 -112 -99 -237 -106 -350 -6 -102 5 -246 22 -295 6 -16 16 -48 22 -70 16 -53 73 -166 119 -235 45 -69 154 -185 205 -219 116 -78 153 -100 169 -100 9 -1 17 -5 17 -11 0 -5 9 -10 20 -10 11 0 28 -4 38 -9 40 -20 123 -41 210 -51 246 -31 526 68 720 254 102 97 206 269 247 406 9 30 22 68 28 85 7 17 11 91 10 180 -1 145 -2 153 -38 260 -58 173 -122 279 -237 392 -65 63 -232 183 -255 183 -5 0 -27 8 -49 18 -37 18 -104 37 -207 61 -55 13 -200 12 -272 -1z m275 -176 c76 -13 102 -23 205 -74 175 -88 326 -267 373 -443 23 -86 25 -104 25 -220 0 -186 -20 -256 -120 -428 -19 -33 -155 -167 -198 -195 -110 -71 -195 -104 -320 -124 -63 -10 -209 -4 -260 11 -134 40 -180 61 -255 115 -100 72 -186 172 -234 271 -25 49 -49 106 -54 125 -6 19 -16 53 -22 75 -17 58 -8 276 14 350 44 151 147 308 253 387 63 46 219 128 245 128 9 0 20 5 23 10 3 6 27 10 53 11 26 0 56 4 67 9 22 10 122 6 205 -8z"
       id="path67" />
    <path
       d="M12255 4058 c-158 -29 -299 -94 -430 -198 -65 -52 -119 -108 -149 -155 -11 -16 -26 -37 -34 -45 -24 -23 -110 -209 -128 -275 -32 -116 -39 -351 -12 -450 55 -206 160 -374 318 -506 88 -73 169 -117 296 -162 l119 -41 165 0 c131 0 173 4 203 17 43 18 45 33 17 96 -11 24 -20 49 -20 56 0 19 -29 26 -53 13 -34 -18 -269 -15 -339 5 -163 45 -303 143 -409 284 -38 51 -109 188 -109 211 0 7 -4 20 -9 30 -15 29 -31 135 -31 204 0 160 54 313 159 455 76 102 133 151 246 211 95 49 116 57 205 74 93 18 311 9 335 -13 5 -5 15 -9 22 -9 40 0 233 -113 295 -172 77 -74 147 -196 200 -348 23 -64 23 -76 28 -585 l5 -520 76 -3 c57 -2 79 1 88 12 14 17 9 916 -6 1031 -10 77 -49 198 -89 278 -66 129 -197 275 -324 359 -82 54 -188 108 -212 108 -7 0 -30 6 -53 14 -101 35 -257 45 -370 24z"
       id="path69" />
    <path
       d="M9155 4050 c-38 -4 -81 -12 -95 -17 -14 -6 -45 -17 -70 -24 -111 -32 -259 -127 -364 -234 -92 -93 -165 -207 -203 -316 -34 -96 -43 -148 -53 -299 -7 -116 -16 -176 -35 -225 -48 -125 -124 -245 -194 -307 -56 -49 -160 -117 -221 -144 -71 -32 -193 -64 -242 -64 -19 0 -39 -5 -46 -12 -16 -16 -16 -154 0 -164 22 -14 191 6 230 27 10 5 26 9 35 9 31 0 235 108 296 157 123 97 255 286 302 433 10 30 21 65 26 78 5 13 9 59 9 102 0 135 27 288 68 385 69 162 201 303 352 377 124 61 151 68 247 68 93 0 93 0 93 90 0 98 6 94 -135 80z"
       id="path71" />
    <path
       d="M18059 4056 c-2 -3 -29 -10 -59 -15 -100 -18 -115 -23 -175 -52 -224 -108 -373 -252 -470 -454 -29 -60 -56 -123 -60 -140 -3 -16 -11 -50 -16 -75 -17 -72 -22 -249 -10 -310 20 -97 74 -253 105 -305 72 -120 201 -265 287 -323 58 -39 171 -95 224 -112 22 -7 49 -16 60 -20 31 -12 173 -30 234 -30 89 0 232 27 296 56 17 7 52 23 79 34 84 35 202 121 260 189 12 14 39 45 61 70 68 77 133 197 166 306 6 22 18 58 25 80 20 59 19 309 -2 383 -51 188 -122 316 -243 446 -37 39 -123 107 -176 139 -61 36 -194 97 -212 97 -10 0 -23 4 -28 9 -6 5 -32 12 -60 16 -68 9 -279 17 -286 11z m216 -162 c237 -54 368 -133 493 -297 35 -46 51 -74 107 -187 7 -14 18 -50 25 -80 6 -30 16 -71 21 -91 44 -175 -67 -487 -228 -640 -54 -52 -183 -139 -234 -158 -19 -7 -43 -17 -54 -21 -42 -18 -84 -23 -210 -27 -120 -4 -201 4 -260 27 -105 40 -268 147 -313 206 -68 87 -85 113 -111 168 -16 34 -42 97 -57 141 -25 72 -27 94 -27 210 0 126 4 151 40 250 60 161 183 317 311 393 29 18 55 32 57 32 3 0 24 8 48 19 68 30 99 40 152 47 28 4 59 10 70 15 32 13 95 10 170 -7z"
       id="path73" />
    <path
       d="M18130 3273 c-92 -47 -87 -180 7 -220 102 -42 202 58 160 160 -28 65 -104 93 -167 60z"
       id="path75" />
    <path
       d="M19990 4056 c-3 -3 -30 -10 -60 -15 -98 -18 -114 -22 -170 -48 -142 -64 -281 -169 -362 -272 -58 -72 -70 -91 -124 -196 -36 -67 -42 -86 -67 -185 -7 -29 -12 -235 -14 -573 l-3 -528 75 3 75 3 4 495 c3 566 6 591 84 745 41 82 101 173 142 215 32 32 165 123 215 145 114 51 181 65 317 65 96 -1 140 -5 158 -15 14 -8 37 -14 52 -15 15 0 30 -4 33 -10 3 -5 14 -10 23 -10 10 0 52 -20 93 -44 170 -100 284 -244 356 -451 l28 -80 2 -520 3 -520 78 0 77 0 3 470 c2 396 0 483 -14 550 -17 86 -31 140 -45 167 -5 10 -9 24 -9 31 0 21 -48 116 -92 182 -48 71 -163 192 -233 244 -63 47 -229 131 -259 131 -12 0 -26 4 -31 9 -6 5 -30 12 -55 15 -67 10 -274 19 -280 12z"
       id="path77" />
    <path
       d="M21910 4056 c-3 -3 -30 -9 -60 -15 -91 -16 -129 -28 -194 -60 -87 -43 -213 -126 -264 -175 -46 -44 -141 -178 -184 -261 -98 -186 -115 -420 -50 -675 42 -166 220 -397 384 -498 78 -48 172 -92 199 -92 10 0 20 -4 23 -9 10 -15 74 -23 221 -28 133 -4 182 1 290 29 80 21 174 60 236 97 122 74 291 267 343 391 10 25 22 53 27 62 5 10 9 29 9 42 0 14 5 28 10 31 6 3 10 21 10 38 0 18 7 54 15 81 18 59 19 112 3 122 -14 9 -140 5 -151 -5 -4 -4 -7 -34 -8 -67 -1 -82 -40 -207 -90 -285 -16 -25 -29 -51 -29 -56 0 -20 -164 -180 -222 -216 -72 -46 -137 -77 -159 -77 -10 0 -20 -4 -23 -9 -8 -13 -75 -22 -201 -28 -103 -4 -126 -1 -240 29 -112 30 -276 142 -359 246 -54 69 -136 225 -136 261 0 11 -4 23 -10 26 -5 3 -10 32 -11 63 -1 31 -4 68 -8 81 -7 27 6 179 21 236 51 196 202 387 375 477 89 45 121 56 228 78 101 21 149 23 205 6 30 -9 68 -16 86 -16 18 0 36 -4 39 -10 3 -5 16 -10 27 -10 53 0 278 -141 278 -175 0 -5 -133 -144 -295 -307 -162 -163 -295 -302 -295 -307 0 -10 52 -14 169 -14 l43 1 311 311 311 311 -74 73 c-115 113 -171 153 -307 222 -109 56 -193 75 -368 82 -66 2 -123 2 -125 -1z"
       id="path79" />
    <path
       d="M14210 4044 c-119 -19 -149 -28 -250 -78 -136 -67 -180 -99 -276 -198 -44 -45 -92 -99 -105 -118 -64 -89 -123 -221 -142 -315 -6 -30 -11 -261 -11 -570 l-1 -520 82 -3 81 -3 4 528 4 528 26 65 c37 94 49 120 77 165 90 143 178 222 325 290 99 47 124 53 236 63 l75 7 0 80 0 80 -50 1 c-27 1 -61 0 -75 -2z"
       id="path81" />
    <path
       d="M17140 4039 c-108 -10 -159 -19 -166 -30 -3 -5 -14 -9 -24 -9 -18 0 -91 -36 -170 -83 -89 -54 -239 -185 -240 -209 0 -4 -13 -22 -29 -40 -41 -48 -121 -189 -121 -215 0 -12 -4 -24 -9 -27 -9 -6 -17 -36 -31 -131 -5 -33 -9 -283 -10 -555 l-1 -495 80 -3 81 -3 0 507 c0 310 4 521 10 541 6 18 15 50 21 71 62 205 233 393 429 473 72 29 122 40 195 45 111 8 106 4 103 92 -3 88 6 82 -118 71z"
       id="path83" />
    <path
       d="M2082 2951 c-264 -65 -476 -279 -543 -551 -29 -112 -23 -310 11 -410 88 -259 281 -441 535 -506 105 -27 286 -24 389 5 284 80 492 309 542 595 28 159 7 320 -61 464 -39 82 -52 87 -102 42 -40 -36 -41 -51 -8 -118 77 -160 73 -355 -12 -532 -28 -59 -54 -94 -122 -160 -141 -140 -286 -197 -471 -187 -202 12 -374 111 -489 283 -209 312 -96 730 244 903 169 85 346 90 524 14 l83 -36 40 41 c28 27 39 45 35 57 -9 21 -121 72 -215 96 -99 25 -277 25 -380 0z"
       id="path85" />
    <path
       d="M4045 2954 c-92 -23 -225 -89 -225 -111 0 -23 60 -83 82 -83 9 0 45 14 80 30 234 110 506 56 694 -135 282 -289 230 -743 -110 -964 -391 -255 -917 10 -961 484 -8 89 14 203 56 297 l32 69 -38 39 c-22 22 -47 40 -56 40 -22 0 -81 -132 -103 -227 -20 -88 -21 -254 -2 -344 57 -268 267 -489 534 -561 113 -30 299 -30 406 1 244 68 433 244 510 472 96 286 33 578 -169 784 -91 93 -181 150 -300 191 -71 24 -97 28 -225 30 -103 2 -162 -2 -205 -12z"
       id="path87" />
  </g>
  <path
     style="fill:#ff0000;stroke:none;stroke-width:1.99258"
     d="m 748.38861,622.83144 c -2.36067,-1.49436 -2.08009,-3.49527 1.7421,-12.42312 11.34899,-26.50896 193.62229,-422.45981 206.46912,-448.51123 5.4941,-11.14122 8.74097,-13.33209 14.42072,-9.73064 2.80368,1.77777 -2.52033,13.66436 -144.03131,321.56934 -50.15153,109.12161 -70.25886,150.92946 -72.57837,150.9074 -1.7646,-0.0168 -4.47462,-0.83208 -6.02226,-1.81175 z"
     id="path517"
     transform="scale(0.75)" />
  <path
     style="fill:#ff0000;stroke-width:1.99258"
     d="m 748.21363,619.93313 c 0,-3.2122 39.88548,-91.0359 132.68277,-292.15379 81.83659,-177.36295 80.26839,-174.1731 86.02978,-174.99097 l 4.51024,-0.64027 -4.17874,10.60316 c -9.76366,24.7744 -162.72129,358.59854 -193.25207,421.76522 -14.05671,29.08264 -19.32038,38.16464 -22.11917,38.16464 -2.02005,0 -3.67281,-1.2366 -3.67281,-2.74799 z"
     id="path593"
     transform="scale(0.75)" />
  <path
     style="fill:#ff0000;stroke-width:0.249072"
     d="m 863.36512,360.11483 c 0.13295,-0.24982 4.47052,-9.64499 9.63906,-20.87816 53.8623,-117.06287 88.46395,-191.1631 89.26502,-191.1631 0.14592,0 1.35946,0.34507 2.69675,0.76681 2.90641,0.91661 8.19261,3.44584 9.00149,4.30685 l 0.57739,0.6146 -1.37585,3.2003 c -5.14197,11.96049 -26.07654,57.82999 -70.11636,153.63121 -19.50137,42.42194 -22.98064,49.82668 -23.44497,49.89662 -0.45888,0.0691 -0.50694,0.01 -0.30342,-0.37361 0.63778,-1.20203 42.78062,-93.2168 56.39085,-123.12392 27.93089,-61.37534 35.812,-79.78508 35.812,-83.65444 v -1.20552 l -1.7011,-0.78409 c -2.0496,-0.94472 -4.01155,-1.05652 -5.47136,-0.31178 -2.14206,1.0928 -4.61433,4.42115 -7.36105,9.90998 -4.78417,9.56031 -39.60964,84.57387 -83.06126,178.91277 -8.85634,19.22824 -9.50699,20.55366 -10.12667,20.62909 -0.57255,0.0697 -0.6295,0.0191 -0.42052,-0.37361 z"
     id="path632"
     transform="scale(0.75)" />
  <path
     style="fill:#ff0000;stroke-width:0.0311341"
     d="m 946.61105,180.41407 c 0.0159,-0.03 0.42107,-0.8881 0.9003,-1.90696 6.09204,-12.95195 10.36239,-21.88082 12.74608,-26.65075 1.40207,-2.80567 1.92034,-3.76722 2.03048,-3.76722 0.13369,0 2.01094,0.5483 2.97679,0.86945 2.4546,0.81616 6.53521,2.71084 8.17269,3.79468 0.22135,0.14651 0.4215,0.31889 0.69246,0.59639 0.20961,0.21467 0.38124,0.4027 0.38139,0.41785 3.1e-4,0.0295 -0.6301,1.50539 -1.61064,3.77081 -1.55729,3.59795 -4.63157,10.47681 -8.57123,19.17858 -0.86054,1.90074 -1.59335,3.52243 -1.62845,3.60377 l -0.0638,0.14789 h -0.75993 c -0.59607,0 -0.75635,-0.008 -0.7433,-0.0389 0.009,-0.0214 0.36215,-0.8305 0.78444,-1.79799 1.41533,-3.24258 3.25475,-7.55001 4.46058,-10.44548 2.82194,-6.7761 4.43603,-11.1648 4.94094,-13.43434 0.16161,-0.72642 0.20284,-1.11761 0.20284,-1.92449 v -0.70707 l -0.94181,-0.43339 c -1.11375,-0.51251 -1.5575,-0.69251 -2.07316,-0.84093 -0.77144,-0.22204 -1.28133,-0.29731 -2.01236,-0.29704 -1.21327,4.5e-4 -2.03938,0.28201 -3.05196,1.0402 -0.44782,0.33531 -1.39001,1.26138 -1.84706,1.81545 -1.26154,1.52933 -2.53491,3.5222 -3.9021,6.10694 -1.05116,1.98728 -3.33072,6.7498 -8.43275,17.61793 l -1.56755,3.33913 h -0.55591 c -0.51972,0 -0.55402,-0.004 -0.52694,-0.0545 z"
     id="path671"
     transform="scale(0.75)" />
  <path
     style="fill:#ff0000;stroke-width:0.0311341"
     d="m 970.66646,151.93241 c -0.42599,-0.26264 -1.21505,-0.67036 -1.59785,-0.82565 -0.1425,-0.0578 -0.24577,-0.10954 -0.22948,-0.11497 0.0526,-0.0175 0.77784,0.28615 1.70015,0.712 0.93671,0.43249 0.96959,0.45659 0.62533,0.45833 -0.101,5.2e-4 -0.19516,-0.0429 -0.49815,-0.22971 z"
     id="path710"
     transform="scale(0.75)" />
  <path
     style="fill:#ff0000;stroke-width:0.0311341"
     d="m 946.5948,180.4452 c 0.008,-0.0128 0.3502,-0.73787 0.76086,-1.61118 6.28201,-13.3593 10.73926,-22.67519 13.1162,-27.41354 1.19949,-2.39115 1.71203,-3.33134 1.81605,-3.33134 0.13955,0 2.30262,0.63472 3.13246,0.91917 2.70307,0.92656 6.99842,2.96417 8.25517,3.91606 0.29949,0.22684 0.84797,0.81464 0.82753,0.88686 -0.016,0.0566 -1.66014,3.87091 -2.21044,5.12813 -1.58346,3.61759 -4.41305,9.93502 -8.18223,18.2679 l -1.47517,3.2613 h -0.75568 c -0.41562,0 -0.75568,-0.005 -0.75568,-0.0104 0,-0.006 0.11345,-0.26843 0.2521,-0.58376 0.13866,-0.31533 0.61651,-1.41394 1.0619,-2.44137 5.81175,-13.40657 8.49176,-20.33878 9.00932,-23.30384 0.036,-0.20628 0.0562,-0.55481 0.0666,-1.15196 l 0.015,-0.85618 -0.94487,-0.43265 c -1.12152,-0.51355 -1.58114,-0.6999 -2.08113,-0.84381 -0.82877,-0.23855 -1.37379,-0.31035 -2.17614,-0.28667 -1.21293,0.0358 -2.04009,0.35255 -3.07007,1.17572 -0.34742,0.27766 -1.28164,1.21786 -1.64612,1.65666 -1.33519,1.60747 -2.7132,3.79769 -4.20626,6.6855 -1.05604,2.04252 -3.32941,6.80559 -8.25106,17.28718 l -1.45825,3.10563 h -0.55714 c -0.30642,0 -0.55074,-0.0105 -0.54293,-0.0234 z"
     id="path749"
     transform="scale(0.75)" />
  <path
     style="fill:#ff0000;stroke-width:0.0311341"
     d="m 946.70601,180.2117 c 0.36246,-0.78309 3.58071,-7.60488 5.21051,-11.04481 5.7602,-12.15775 9.34841,-19.50675 10.16344,-20.81569 l 0.15349,-0.2465 0.12731,0.008 c 0.2174,0.0137 2.18575,0.5941 3.20755,0.94579 2.38148,0.81967 6.20981,2.61273 7.82238,3.66375 0.27942,0.18211 0.44179,0.31935 0.73944,0.62498 0.20976,0.2154 0.38139,0.40682 0.38139,0.42538 0,0.0352 -1.32253,3.11823 -2.15629,5.02662 -1.50618,3.44748 -4.38673,9.88264 -7.85317,17.54404 -0.78253,1.7295 -1.52187,3.36521 -1.64299,3.6349 l -0.22023,0.49037 h -0.76081 c -0.5963,0 -0.75741,-0.008 -0.74507,-0.0389 0.009,-0.0214 0.39701,-0.91457 0.86298,-1.9848 5.4461,-12.5084 8.39918,-19.96959 9.22965,-23.31941 0.23644,-0.95372 0.27132,-1.21581 0.28799,-2.16381 l 0.0148,-0.84062 -0.88239,-0.40322 c -1.46703,-0.67037 -1.98461,-0.86274 -2.76362,-1.02716 -0.53734,-0.11341 -1.00092,-0.1527 -1.57148,-0.13319 -0.79413,0.0272 -1.3594,0.1621 -1.9757,0.47162 -1.6746,0.84104 -3.61646,3.1478 -5.67992,6.74728 -1.21109,2.1126 -2.28592,4.2921 -6.13933,12.44912 -1.15308,2.44087 -1.85414,3.93075 -4.28146,9.09893 l -0.53738,1.14418 h -0.55498 -0.55498 z"
     id="path788"
     transform="scale(0.75)" />
  <path
     style="fill:#ff0000;stroke-width:0.0311341"
     d="m 946.68915,180.24353 c 0.0572,-0.12453 0.72793,-1.55039 1.49059,-3.16859 6.19975,-13.15459 9.81956,-20.71417 12.14954,-25.37304 1.14179,-2.28302 1.67959,-3.30093 1.87059,-3.54047 l 0.0683,-0.0857 0.33851,0.0854 c 0.9439,0.23813 2.69773,0.78898 3.63873,1.14285 2.46542,0.92715 5.69474,2.47196 7.14526,3.41808 0.27914,0.18206 0.4421,0.31985 0.73944,0.62516 0.20976,0.2154 0.38139,0.4068 0.38139,0.42533 0,0.0329 -1.39432,3.28672 -2.14066,4.99554 -1.62279,3.71556 -4.52164,10.18149 -9.34851,20.85203 l -0.38378,0.84841 h -0.76068 c -0.59598,0 -0.75735,-0.008 -0.74532,-0.0389 0.008,-0.0214 0.27764,-0.64136 0.5982,-1.37768 6.28267,-14.43122 9.17529,-21.84921 9.70037,-24.87611 0.0502,-0.28953 0.0686,-0.5628 0.0817,-1.21423 l 0.0169,-0.84062 -0.5406,-0.24622 c -2.13147,-0.97081 -2.75475,-1.18135 -3.84081,-1.29742 -0.41912,-0.0448 -1.1947,-0.0206 -1.6034,0.0499 -0.94903,0.16389 -1.76787,0.61732 -2.74854,1.52199 -1.23638,1.14056 -2.5026,2.8383 -3.938,5.28005 -1.46944,2.49968 -2.89127,5.42777 -10.35594,21.32683 l -0.79666,1.69681 -0.56028,0.008 -0.56029,0.008 z"
     id="path827"
     transform="scale(0.75)" />
  <path
     style="fill:#ff0000;stroke-width:0.124536"
     d="m 755.499,626.34686 c -2.29661,-0.59855 -7.00549,-2.35901 -8.86739,-3.31515 -1.72442,-0.88554 -2.37378,-1.83211 -2.09876,-3.05934 0.19258,-0.85933 4.81299,-11.15538 16.94749,-37.76552 3.37331,-7.39746 6.24871,-13.71611 6.38977,-14.04146 l 0.25648,-0.59155 h 0.64481 0.64481 l -3.10864,6.81836 c -3.69563,8.10584 -11.97513,26.3852 -13.8622,30.60477 -5.67268,12.68434 -6.47087,15.48549 -4.89865,17.19115 0.99379,1.07813 3.7918,2.18664 6.28203,2.48879 0.56516,0.0686 0.67658,0.0408 1.03071,-0.25721 2.00735,-1.68907 10.29978,-17.99323 25.79279,-50.71245 l 2.90425,-6.13341 h 0.72359 0.72358 l -0.35122,0.77835 c -0.19318,0.42809 -2.41107,5.26166 -4.92867,10.74125 -5.19095,11.29824 -11.77595,25.68523 -14.33571,31.32086 -2.68824,5.91851 -5.95782,12.40305 -7.37294,14.62272 -0.57985,0.90953 -1.15838,1.56714 -1.37251,1.56013 -0.11528,-0.004 -0.62991,-0.1164 -1.14362,-0.25029 z"
     id="path866"
     transform="scale(0.75)" />
  <path
     style="fill:#ff0000;stroke-width:0.176121"
     d=""
     id="path905"
     transform="scale(0.75)" />
  <path
     style="fill:#ff0000;stroke-width:0.176121"
     d="m 783.70185,567.32918 c 0.0495,-0.12108 1.96912,-4.2225 4.26587,-9.11425 11.41207,-24.30608 24.7954,-53.28232 59.85803,-129.59864 9.5395,-20.7634 17.38215,-37.78924 17.42811,-37.8352 0.046,-0.046 0.28269,-0.0578 0.52606,-0.0263 0.42888,0.0555 -0.48945,2.08449 -29.83905,65.92647 -16.65485,36.22805 -34.93198,75.99393 -40.61583,88.36862 l -10.33429,22.49943 h -0.68943 c -0.48211,0 -0.66238,-0.0662 -0.59947,-0.22015 z"
     id="path981"
     transform="scale(0.75)" />
  <path
     style="fill:#ff0000;stroke-width:0.176121"
     d="m 768.38519,567.07625 c 0.14021,-0.27257 2.11716,-4.57718 4.39321,-9.56581 10.75202,-23.56611 33.60208,-73.42705 53.26986,-116.23973 6.3857,-13.90034 14.21945,-30.95785 17.40834,-37.90557 l 5.79798,-12.63224 0.59293,-0.004 c 0.48288,-0.004 0.57608,0.0528 0.50215,0.30377 -0.0499,0.16952 -6.80245,14.89102 -15.00562,32.71444 -15.83144,34.39775 -46.92925,102.17318 -58.78971,128.1279 l -7.12261,15.58669 -0.65073,0.0553 -0.65073,0.0553 z"
     id="path1020"
     transform="scale(0.75)" />
  <path
     style="fill:#ff0000;stroke-width:0.176121"
     d="m 849.39228,390.50388 c 0.048,-0.12108 3.15894,-6.89733 6.91314,-15.05833 6.13598,-13.3386 6.86643,-14.83818 7.22776,-14.83818 0.24,0 0.59067,-0.23063 0.87032,-0.57239 0.2576,-0.31482 0.44167,-0.48454 0.40904,-0.37716 -0.0326,0.10738 -3.26237,7.1412 -7.1772,15.63072 l -7.11787,15.43549 h -0.60626 c -0.41417,0 -0.57859,-0.0697 -0.51893,-0.22015 z"
     id="path1096"
     transform="scale(0.75)" />
  <path
     style="fill:#ff0000;stroke-width:0.176121"
     d=""
     id="path1135"
     transform="scale(0.75)" />
  <path
     style="fill:#ff0000;stroke-width:0.176121"
     d="m 865.90335,391.04449 c -0.003,-0.16278 -0.14683,-0.32129 -0.31975,-0.35224 -0.26271,-0.047 0.81641,-2.51698 6.56511,-15.02655 5.70306,-12.41028 6.94293,-14.97943 7.2505,-15.02384 0.24136,-0.0349 0.56731,-0.40415 0.93269,-1.05673 0.30892,-0.55173 0.52508,-0.84464 0.48035,-0.65091 -0.0753,0.32603 -14.40414,31.5525 -14.74901,32.14205 -0.13229,0.22615 -0.15531,0.22158 -0.15989,-0.0318 z"
     id="path1174"
     transform="scale(0.75)" />
  <path
     style="fill:#1a1a1a;stroke-width:2.81793"
     d="m 1019.1964,524.13218 c 0.8893,-10.49211 1.0198,-10.59452 19.3554,-15.19349 10.1531,-2.5466 25.0491,-8.85833 33.1024,-14.02608 28.2386,-18.12069 41.7608,-42.59137 45.8125,-82.9056 4.0219,-40.01787 14.1756,-61.82759 39.6944,-85.26214 22.0851,-20.28135 51.6627,-33.57776 70.6354,-31.75371 8.23,0.79124 9.2761,1.8452 9.2761,9.34561 0,8.0789 -0.6492,8.53303 -14.6384,10.24049 -30.4824,3.72052 -59.8686,25.15805 -74.0441,54.01582 -6.596,13.42776 -9.1773,23.65057 -11.1696,44.23411 -1.4251,14.7237 -4.5426,32.19676 -6.9278,38.82901 -5.8191,16.18084 -22.3141,40.60398 -34.8672,51.62576 -13.3706,11.73952 -46.403,27.07067 -63.5484,29.49438 l -13.5761,1.91914 z"
     id="path1361"
     transform="scale(0.75)" />
  <path
     style="fill:#1a1a1a;stroke-width:0.352242"
     d="m 1018.511,534.11436 c 0.01,-0.92216 1.0554,-12.47626 1.2712,-14.02959 0.2969,-2.13738 1.0336,-3.84641 2.1775,-5.0517 1.7576,-1.85181 3.9619,-2.67239 14.8119,-5.51378 13.7099,-3.59037 27.1244,-9.3178 36.6848,-15.66285 21.2338,-14.09249 33.5774,-31.87384 40.111,-57.7813 1.6313,-6.46876 2.7129,-12.8394 3.9169,-23.07183 1.3367,-11.35971 2.2405,-17.50457 3.3935,-23.07182 4.1379,-19.9791 11.2043,-35.14325 22.8158,-48.96159 12.4622,-14.83066 28.1952,-27.33528 45.0264,-35.78713 15.894,-7.98118 29.9101,-11.33026 41.0181,-9.80109 5.9447,0.81837 6.8541,1.85468 7.0854,8.07449 0.3077,8.27196 -0.8546,9.26157 -12.6077,10.73489 -11.2802,1.41405 -20.1287,4.04983 -30.1167,8.97118 -20.3509,10.02745 -36.6239,26.28043 -46.197,46.14026 -6.3402,13.15312 -8.4566,21.65715 -10.8758,43.70081 -2.1949,19.99995 -4.8669,33.72819 -8.102,41.62708 -6.8611,16.75208 -23.5628,40.44545 -35.0379,49.70544 -11.2803,9.10276 -32.8285,19.97038 -50.5467,25.49278 -5.3592,1.67035 -8.8119,2.39897 -16.3792,3.45655 -3.5841,0.50089 -6.9524,0.99773 -7.4852,1.1041 -0.6689,0.13356 -0.9673,0.0485 -0.9643,-0.2749 z"
     id="path1400"
     transform="scale(0.75)" />
  <path
     style="fill:#333333;stroke-width:0.352242"
     d="m 1018.5142,533.73413 c 0,-0.4359 0.3083,-3.97644 0.6757,-7.86788 1.1284,-11.94899 1.1979,-12.0175 16.2244,-15.99219 23.4026,-6.19029 40.2857,-15.28215 54.07,-29.11773 6.7119,-6.73681 12.0605,-14.3101 16.3809,-23.19445 6.1444,-12.63475 9.4667,-25.58415 11.7935,-45.96753 2.0242,-17.73154 3.9638,-27.334 7.745,-38.34425 5.3772,-15.65714 13.4789,-28.20342 26.7596,-41.43984 17.1162,-17.05909 38.2329,-29.82328 57.3836,-34.68609 8.142,-2.06743 14.0974,-2.58138 20.1912,-1.74249 5.9447,0.81837 6.8541,1.85468 7.0854,8.07449 0.3098,8.33004 -0.4972,9.03588 -12.2555,10.7195 -7.3679,1.05498 -8.7038,1.30291 -13.3041,2.469 -10.7752,2.73139 -23.1614,8.81462 -33.0114,16.213 -13.0446,9.79776 -22.9994,21.70751 -29.9611,35.84506 -6.4775,13.1542 -8.6781,21.68071 -11.0696,42.89162 -2.2278,19.75869 -4.741,33.56813 -7.4585,40.98348 -6.2472,17.04694 -24.7946,43.36083 -37.2067,52.78652 -14.2229,10.80082 -40.5584,23.117 -56.6341,26.48575 -1.9255,0.40349 -16.5814,2.67658 -17.2575,2.67658 -0.087,0 -0.1549,-0.35665 -0.1508,-0.79255 z"
     id="path1439"
     transform="scale(0.75)" />
  <path
     style="fill:#333333;stroke-width:0.352242"
     d="m 1345.3014,537.68467 c -11.0664,-0.79568 -23.5341,-3.37877 -31.5149,-6.52936 -2.1722,-0.85752 -5.0058,-1.70872 -6.2968,-1.89155 -2.0357,-0.28829 -2.4997,-0.49875 -3.4951,-1.58553 -0.6951,-0.75888 -1.4764,-1.25322 -1.9809,-1.25339 -1.8071,-6e-4 -7.1175,-3.03452 -18.0929,-10.33675 -7.055,-4.69382 -9.1801,-6.48136 -16.03,-13.48332 -9.0332,-9.23373 -14.091,-15.59305 -19.1551,-24.08451 -5.649,-9.47218 -10.828,-20.37921 -12.8831,-27.13186 -0.6176,-2.02911 -1.6583,-5.36764 -2.3127,-7.41895 -2.1547,-6.75344 -3.3405,-18.05579 -3.3299,-31.73663 0.01,-10.9039 0.6538,-16.47604 3.0112,-25.99987 3.3498,-13.53305 10.6028,-29.5203 18.8842,-41.62455 5.4397,-7.95082 17.5784,-20.41695 27.1111,-27.84257 15.9013,-12.38648 35.4613,-21.19144 54.1942,-24.39567 8.1292,-1.39049 26.8222,-1.61668 33.463,-0.40491 9.004,1.64302 22.8841,5.69424 31.8778,9.30424 1.9374,0.77763 4.1565,1.61168 4.9314,1.85345 5.381,1.67881 25.9308,16.921 34.8743,25.86698 14.5365,14.54055 22.8046,28.81099 30.819,53.19225 2.8599,8.70036 3.4445,11.64287 3.9187,19.72553 0.4452,7.5865 0.193,28.55563 -0.3893,32.36805 -0.4556,2.9833 -5.4679,18.56462 -7.7865,24.20504 -4.7755,11.6176 -12.4414,24.63204 -20.4723,34.75591 -11.0019,13.86923 -27.4362,26.28143 -45.1252,34.08145 -8.6582,3.81788 -19.2958,7.15499 -27.8927,8.75023 -7.6782,1.42477 -19.1748,2.13056 -26.3275,1.61629 z m 22.4529,-24.44829 c 13.881,-2.60083 23.3885,-6.1815 35.2879,-13.28998 6.2911,-3.75819 11.1619,-7.84182 20.434,-17.13154 7.3962,-7.41028 9.5767,-10.09225 12.7146,-15.63876 7.4723,-13.2077 11.0302,-22.48548 12.5513,-32.73004 1.3747,-9.25793 1.5811,-30.50636 0.3741,-38.51874 -0.6784,-4.50406 -2.9723,-13.3163 -4.6118,-17.71693 -4.6588,-12.50457 -12.0982,-23.72278 -22.8346,-34.43307 -5.783,-5.76895 -9.1613,-8.54861 -15.6973,-12.91563 -5.026,-3.35812 -16.2494,-9.14513 -22.4061,-11.55304 -8.4378,-3.30002 -21.1197,-5.35955 -33.4242,-5.42803 -5.1295,-0.0285 -6.4174,0.0791 -8.9822,0.75066 -1.7579,0.46029 -5.0372,0.9254 -7.9425,1.12651 -5.1542,0.35676 -6.2197,0.59876 -7.8254,1.77717 -0.53,0.38895 -1.7979,0.86383 -2.8176,1.05529 -1.0197,0.19146 -3.0368,0.84051 -4.4824,1.44234 -5.9517,2.47767 -20.2946,10.28063 -26.001,14.14525 -13.7878,9.33771 -27.7561,29.27582 -34.4765,49.21109 -2.7799,8.24651 -3.7762,16.08196 -4.0598,31.92956 -0.128,7.15042 -0.058,12.11434 0.2018,14.31757 0.5159,4.37416 3.7072,15.19607 6.2512,21.19847 2.73,6.44087 7.2951,15.23342 10.0769,19.40805 7.4251,11.14276 17.7939,21.44662 29.2422,29.05891 7.4578,4.95892 13.7081,7.76364 25.4701,11.42935 9.4852,2.95615 16.1681,3.74844 29.9243,3.54772 6.9228,-0.10101 8.8191,-0.25265 13.033,-1.04218 z"
     id="path1774"
     transform="scale(0.75)" />
  <path
     style="fill:#333333;stroke-width:0.352242"
     d="m 1028.3694,533.46611 c 7.2327,-1.09812 10.4098,-1.83837 16.9076,-3.93939 15.1525,-4.89942 33.7643,-14.03908 45.2631,-22.22732 13.3371,-9.49723 31.4611,-34.31368 39.0256,-53.43606 2.9335,-7.41567 5.5946,-21.43609 7.8223,-41.21227 1.935,-17.17854 3.2136,-23.79462 6.2625,-32.40623 8.9822,-25.37054 27.2123,-45.58685 51.775,-57.41592 4.7617,-2.29315 12.7047,-5.29569 13.9472,-5.27215 0.3175,0.006 -1.087,0.64378 -3.1212,1.41726 -6.3134,2.40059 -18.083,8.42466 -23.248,11.89907 -11.0441,7.42921 -20.8213,17.3552 -28.4329,28.86572 -3.4299,5.18673 -7.9907,14.19457 -9.8552,19.46432 -4.4276,12.51448 -7.5033,31.28668 -7.5033,45.79565 0,2.45167 -0.1655,6.49568 -0.3678,8.9867 -0.3846,4.73653 -1.5041,8.78475 -5.351,19.34949 -6.7414,18.51377 -22.9017,41.38469 -38.1353,53.97078 -4.3168,3.56657 -12.5238,8.62669 -22.5434,13.89936 -9.9901,5.25712 -15.0811,7.46125 -18.5086,8.01323 -1.1832,0.19055 -3.3915,0.82472 -4.9073,1.40929 -4.7844,1.84507 -17.4681,3.95192 -23.2562,3.86302 -1.9208,-0.0295 -1.2401,-0.1945 4.2269,-1.02455 z"
     id="path1928"
     transform="scale(0.75)" />
  <path
     style="fill:#333333;stroke-width:0.352242"
     d=""
     id="path1967"
     transform="scale(0.75)" />
  <path
     style="fill:#333333;stroke-width:0.352242"
     d=""
     id="path2006"
     transform="scale(0.75)" />
  <g
     id="g24249">
    <path
       style="fill:#333333;stroke-width:0.352242"
       d="m 1018.8263,533.91025 c -0.2202,-1.78063 0.9893,-13.23949 1.6358,-15.49706 0.6686,-2.33525 2.1656,-4.04932 4.497,-5.14917 1.0039,-0.4736 5.0747,-1.75434 9.0462,-2.84608 21.6576,-5.9535 34.3743,-11.91685 47.3765,-22.21667 18.2624,-14.46669 29.2984,-34.15823 34.1492,-60.93217 0.4914,-2.71226 1.5313,-9.92441 2.3109,-16.02699 2.4011,-18.79549 3.9176,-26.41567 7.255,-36.45701 6.0198,-18.1114 15.6993,-32.50587 31.6646,-47.08856 19.0172,-17.37028 41.1889,-29.08569 60.5856,-32.01305 3.6564,-0.55183 10.237,-0.55118 13.4667,10e-4 5.0023,0.85572 5.8271,2.25519 5.6575,9.59856 -0.1014,4.39438 -0.1203,4.48687 -1.1287,5.53839 -1.5462,1.61231 -3.7742,2.21266 -13.2403,3.56769 -12.0534,1.7254 -22.6307,5.33137 -32.9407,11.23 -19.2964,11.04 -33.6495,26.69102 -42.6255,46.4799 -5.3055,11.69693 -6.9599,18.6344 -9.5027,39.84725 -2.4884,20.75879 -4.7474,33.08152 -7.4382,40.57395 -5.6664,15.77797 -23.9313,42.022 -36.0611,51.81454 -10.6302,8.58196 -31.8276,19.40833 -48.6994,24.87279 -5.794,1.87658 -7.4026,2.23822 -16.5849,3.72857 -7.8429,1.27296 -9.3671,1.43046 -9.4235,0.97381 z"
       id="path1813"
       transform="scale(0.75)" />
    <path
       style="fill:#333333;stroke-width:0.352242"
       d="m 1017.251,532.94122 c -1.2829,-3.07039 -1.2923,-16.27972 -0.014,-19.3397 0.7292,-1.74529 2.1629,-2.34208 6.5171,-2.71276 6.1791,-0.52604 13.9078,-2.17436 21.2904,-4.54065 1.9065,-0.61106 3.5451,-1.03218 3.6415,-0.93581 0.2718,0.2718 -6.8058,2.47427 -14.2983,4.44943 -11.4543,3.0196 -13.2681,4.05131 -14.5308,8.26513 -0.1776,0.59252 -0.6304,4.38987 -1.0063,8.43856 -0.376,4.04869 -0.7636,7.44134 -0.8615,7.53922 -0.098,0.0979 -0.4302,-0.42566 -0.7384,-1.16342 z"
       id="path1852"
       transform="scale(0.75)" />
    <path
       style="fill:#333333;stroke-width:0.0880604"
       d="m 1139.5457,344.05687 v -1.75006 l 0.3683,-0.49233 c 0.6336,-0.84703 2.792,-3.52546 3.7644,-4.67127 3.8469,-4.5331 8.8808,-9.64474 13.4175,-13.62453 8.8552,-7.76826 19.3259,-14.85494 28.9897,-19.62043 4.9358,-2.43398 8.1352,-3.69763 13.3639,-5.27829 2.9181,-0.88215 5.0894,-1.61873 7.5589,-2.56424 1.915,-0.73325 3.3325,-1.08827 6.8163,-1.70726 3.3765,-0.59992 6.4653,-0.96607 14.662,-1.73807 2.3397,-0.22035 5.87,-0.21969 6.8247,10e-4 2.1812,0.50486 2.9548,1.6837 3.2253,4.91444 0.15,1.79284 0.049,12.35963 -0.1294,13.5811 -0.3319,2.26781 -0.9527,3.33792 -2.3146,3.98996 -1.3878,0.6644 -2.8102,0.79312 -9.5433,0.86361 -2.688,0.0281 -5.6006,0.0892 -6.4724,0.13576 -4.1318,0.2205 -7.2549,0.77458 -10.7235,1.90249 -0.8191,0.26638 -1.5037,0.46996 -1.5213,0.45241 -0.018,-0.0176 0.3428,-0.20381 0.8008,-0.41389 1.1144,-0.51118 1.1242,-0.68457 0.023,-0.3991 -0.29,0.0752 -0.5718,0.12183 -0.6262,0.10371 -0.1239,-0.0413 3.3392,-1.0159 5.0469,-1.42025 3.5467,-0.83984 6.0932,-1.28438 10.8754,-1.8985 6.4394,-0.82692 8.5196,-1.2545 10.3031,-2.11777 1.5683,-0.75911 2.3146,-1.83414 2.6462,-3.81209 0.1899,-1.13273 0.2661,-4.92646 0.1349,-6.71054 -0.351,-4.77068 -1.6617,-5.92588 -7.5364,-6.64188 -4.263,-0.51958 -7.9657,-0.45544 -12.6366,0.21889 -15.9454,2.30201 -36.0638,11.9859 -52.7901,25.41024 -8.4696,6.79765 -17.1299,15.50606 -23.0782,23.2065 -0.668,0.86475 -1.2672,1.6303 -1.3317,1.70122 -0.098,0.10773 -0.1171,-0.15894 -0.1171,-1.62112 z"
       id="path2045"
       transform="scale(0.75)" />
  </g>
  <path
     style="fill:#333333;stroke-width:0.352242"
     d="m 1498.2153,535.3405 -2.6862,-0.13741 -0.2128,-100.63901 c -0.1171,-55.35146 -0.2966,-130.52028 -0.399,-167.04184 l -0.1862,-66.40282 6.8002,-6.87355 c 8.2518,-8.3407 13.9098,-13.21352 14.5728,-12.5505 1.3989,1.39886 1.6316,29.91348 1.3905,170.37014 -0.2493,145.21799 -0.589,178.65295 -1.8485,181.93517 -0.4516,1.1768 -1.6349,1.38247 -8.228,1.43013 -3.5841,0.0261 -7.7253,-0.0148 -9.2028,-0.0903 z"
     id="path2084"
     transform="scale(0.75)" />
  <path
     style="fill:#333333;stroke-width:0.352242"
     d="m 1621.5444,532.99046 c -5.134,-1.80437 -11.2366,-4.0398 -13.5613,-4.96761 -16.2226,-6.47429 -28.2155,-14.43353 -40.8619,-27.11839 -14.4251,-14.46893 -25.0429,-32.21587 -31.3944,-52.47366 -3.5222,-11.23408 -3.828,-13.68395 -3.8278,-30.67222 1e-4,-8.85802 0.1594,-15.11367 0.4485,-17.61209 1.1921,-10.29996 2.3095,-16.08127 4.1552,-21.49725 2.946,-8.64494 12.2663,-28.29985 15.2784,-32.21959 0.9677,-1.25927 3.1317,-4.19168 4.809,-6.51647 7.1901,-9.96615 14.8502,-17.42683 26.2542,-25.57077 15.2039,-10.85754 31.274,-17.86726 49.1014,-21.41783 7.9324,-1.57985 12.4239,-1.91817 22.5094,-1.69552 11.9276,0.26332 18.5032,1.263 28.4243,4.32134 2.8339,0.87359 6.03,1.73114 7.1023,1.90567 4.4577,0.72551 15.3316,6.08749 25.9634,12.80271 19.6059,12.38337 39.3234,34.5806 47.7457,53.75032 3.8269,8.71026 7.4957,20.18626 9.1195,28.52603 0.5457,2.80245 1.002,6.91066 1.2366,11.13378 1.5561,28.01097 1.8677,126.0389 0.4127,129.86571 -0.6435,1.69255 -1.8583,1.87742 -11.9546,1.81927 -5.0987,-0.0294 -9.3536,-0.13664 -9.4554,-0.2384 -0.1017,-0.10175 -0.3253,-14.26426 -0.4969,-31.47224 -0.8944,-89.71172 -1.1606,-102.38779 -2.286,-108.8579 -0.8992,-5.169 -4.6874,-15.38301 -9.1537,-24.68088 -7.4399,-15.4881 -15.0541,-25.73481 -24.3382,-32.75299 -10.3646,-7.83496 -28.4144,-17.89543 -33.4072,-18.62021 -0.7776,-0.11288 -2.5234,-0.73884 -3.8795,-1.39102 -4.1649,-2.00296 -12.698,-2.96712 -26.2051,-2.96096 -9.8543,0.004 -14.9173,0.42393 -21.6622,1.79456 -7.2002,1.46316 -11.6794,3.00347 -18.7433,6.4454 -16.2816,7.93346 -25.3066,14.65009 -34.1232,25.39548 -13.796,16.81397 -21.8711,34.30129 -24.7236,53.54073 -0.8633,5.82314 -0.858,19.32216 0.01,25.53752 0.8918,6.38535 1.9147,11.07912 3.0713,14.09361 0.5583,1.45517 1.1709,3.46711 1.3612,4.47097 0.4303,2.26885 1.5235,4.88274 4.6827,11.19695 6.4548,12.90119 11.0711,19.51855 19.7478,28.30826 12.4664,12.62871 27.2958,21.54434 43.7004,26.27315 4.1265,1.18954 9.3001,1.835 18.7165,2.33512 12.2079,0.64839 24.3021,0.0233 28.0379,-1.44929 3.6677,-1.44566 5.9626,-0.60901 6.61,2.40982 0.1988,0.92695 1.2248,3.73906 2.28,6.24915 3.2617,7.75924 3.423,9.09189 1.3402,11.07318 -1.5608,1.48477 -4.3375,2.62027 -8.3478,3.41371 -2.3014,0.45534 -6.4844,0.5757 -23.58,0.67853 l -20.7822,0.12501 -9.3344,-3.28069 z"
     id="path2123"
     transform="scale(0.75)" />
  <path
     style="fill:#333333;stroke-width:0.352242"
     d="m 1798.7219,534.15804 c -3.0029,-0.13343 -6.1334,-0.26359 -6.9568,-0.28923 l -1.497,-0.0466 0.01,-46.23171 c 0,-45.94402 0.4018,-81.39309 1.0364,-92.59306 0.2376,-4.19384 0.5823,-6.84263 1.2159,-9.34188 2.9385,-11.59265 9.4146,-25.77534 16.8137,-36.82271 3.144,-4.69413 8.0652,-10.21656 17.5372,-19.67969 12.0452,-12.03389 16.5608,-15.30977 31.5505,-22.88873 15.1565,-7.66333 21.3601,-9.72401 35.4454,-11.77392 3.7875,-0.55121 12.5789,-0.73225 15.5804,-0.32085 l 1.6343,0.224 v 10.33654 10.33654 l -0.7926,0.15917 c -0.4359,0.0875 -4.4382,0.49502 -8.8941,0.90551 -16.3177,1.50324 -19.9989,2.56294 -35.048,10.0892 -17.375,8.68944 -28.2052,18.58294 -39.2813,35.8838 -3.6018,5.62596 -6.0435,10.74745 -10.6639,22.36734 l -3.8516,9.68665 -0.4117,67.63039 c -0.2264,37.19672 -0.4994,68.77958 -0.6065,70.18415 l -0.1948,2.55375 -3.5804,-0.063 c -1.9693,-0.0347 -6.0373,-0.17218 -9.0402,-0.30562 z"
     id="path2162"
     transform="scale(0.75)" />
  <path
     style="fill:#333333;stroke-width:0.99629"
     d="m 1998.5573,531.09425 c -31.693,-8.20359 -58.232,-27.36287 -74.8625,-54.04543 -6.1479,-9.86382 -15.3017,-30.05299 -15.3017,-33.74846 0,-1.67195 -0.5604,-3.60235 -1.2454,-4.28979 -0.9222,-0.92558 -1.2281,-6.7291 -1.1789,-22.3667 0.068,-21.5917 1.3884,-34.33178 3.9661,-38.2659 0.7959,-1.21466 1.4471,-2.86348 1.4471,-3.66405 0,-2.72398 11.8465,-25.13413 16.4213,-31.06446 8.082,-10.47655 23.5868,-25.44823 32.1579,-31.05218 14.0404,-9.17991 30.4414,-16.07367 43.1445,-18.13474 8.494,-1.37814 32.9602,-1.33838 43.9533,0.0714 l 8.785,1.12664 -0.01,4.10389 c -0.011,4.77934 -3.9751,13.96932 -6.4318,14.91205 -2.8125,1.07926 -6.0309,0.75203 -15.0401,-1.52921 l -8.6029,-2.17838 -12.1066,2.30965 c -17.6565,3.36842 -21.6717,4.60799 -31.836,9.82833 -13.2502,6.80522 -20.259,11.66832 -27.618,19.163 -12.3765,12.60474 -22.3391,29.92082 -26.9148,46.78122 -1.9347,7.12872 -2.2843,10.7539 -2.2098,22.91467 0.1025,16.75634 1.7611,26.16767 6.854,38.8923 7.2095,18.01264 16.5953,30.49965 32.5963,43.36639 8.8713,7.13363 26.9221,16.69198 35.0293,18.54892 6.8657,1.57258 36.1851,2.14651 45.5761,0.89216 4.5419,-0.60664 11.8875,-2.67573 17.8525,-5.02863 11.5146,-4.54188 19.981,-10.51 32.1657,-22.6742 13.7304,-13.70724 19.4205,-23.33135 25.5634,-43.23765 l 3.1894,-10.33535 0.348,-108.09744 c 0.1913,-59.4536 0.6104,-111.79617 0.9312,-116.31684 l 0.5832,-8.21939 h 9.9326 9.9325 l -0.3838,117.81127 c -0.4226,129.73233 -0.081,122.65894 -6.6974,138.55281 -1.7208,4.13365 -3.7182,8.00493 -4.4387,8.60285 -0.7204,0.59792 -1.5575,2.32518 -1.8601,3.83834 -1.38,6.89968 -22.3447,31.37285 -35.6375,41.60147 -7.8324,6.02683 -24.5228,14.62454 -35.5715,18.32386 -11.7166,3.92293 -19.8771,4.96953 -38.5709,4.94674 -12.3782,-0.0152 -16.4841,-0.41677 -23.911,-2.33919 z"
     id="path2201"
     transform="scale(0.75)" />
  <path
     style="fill:#333333;stroke-width:0.99629"
     d="m 2185.5203,533.76948 -6.3173,-0.35608 0.4702,-69.93946 c 0.3978,-59.18723 0.7158,-71.0783 2.0683,-77.34715 0.879,-4.07423 2.0531,-7.86262 2.6092,-8.41865 0.556,-0.55604 1.0109,-1.73842 1.0109,-2.62753 0,-5.09099 15.0378,-30.12908 24.3662,-40.57005 5.3102,-5.94356 17.3871,-15.90414 26.1194,-21.54234 7.7163,-4.98215 22.8,-12.58685 24.9658,-12.58685 0.7332,0 2.3366,-0.65753 3.5631,-1.46118 3.0233,-1.98096 33.1798,-5.30158 34.6644,-3.81699 0.5871,0.5871 1.3106,4.61493 1.6078,8.95072 0.6982,10.18774 0.1028,10.82997 -10.8896,11.74604 -23.6647,1.97213 -41.3452,9.81884 -58.4217,25.92803 -13.1138,12.37089 -21.5592,25.76239 -27.6454,43.83616 l -3.6904,10.95919 -0.4792,68.99306 -0.4793,68.99307 -3.6026,-0.19196 c -1.9814,-0.10558 -6.4453,-0.3522 -9.9198,-0.54803 z"
     id="path2240"
     transform="scale(0.75)" />
  <path
     style="fill:#333333;stroke-width:0.99629"
     d="m 2419.4897,426.19132 c -12.0773,-4.53815 -13.7654,-20.64874 -2.935,-28.00926 2.8633,-1.94591 4.386,-2.26655 9.1729,-1.93159 4.9034,0.34309 6.2501,0.89627 9.2419,3.79597 6.2856,6.09222 6.9898,14.72122 1.7131,20.99214 -4.1052,4.87882 -11.7914,7.18238 -17.1929,5.15274 z"
     id="path2316"
     transform="scale(0.75)" />
  <path
     style="fill:#333333;stroke-width:0.99629"
     d="m 2404.4845,535.10723 c -4.6911,-0.71848 -11.6402,-2.31399 -15.4425,-3.54557 -8.9032,-2.88385 -27.4126,-11.87581 -33.8129,-16.42652 -12.4434,-8.84739 -32.7848,-32.37202 -39.508,-45.69054 -4.2031,-8.32627 -11.5128,-30.84278 -12.9055,-39.75335 -1.4398,-9.21233 -0.4335,-28.82104 2.1145,-41.20482 2.8151,-13.6815 11.0654,-31.24716 21.7025,-46.20675 14.5176,-20.41689 45.0182,-41.23665 67.3265,-45.95715 5.0005,-1.05814 10.8891,-2.39906 13.0856,-2.97983 2.8188,-0.74529 9.3175,-0.73979 22.0899,0.0187 20.8352,1.2373 26.5179,2.69123 44.8652,11.47895 24.9833,11.96612 43.4793,29.88962 56.0019,54.26849 5.2598,10.2398 10.3646,24.22366 12.0911,33.12234 0.5643,2.90865 1.0281,13.3584 1.0306,23.22167 0,16.37846 -0.2208,18.7106 -2.5939,26.89983 -6.1701,21.29175 -13.7716,35.55805 -27.5361,51.67892 -13.5117,15.82495 -26.0751,25.10607 -44.5283,32.8951 -15.6939,6.62433 -24.932,8.65096 -41.5032,9.10484 -8.5041,0.23294 -17.2771,-0.12782 -22.4774,-0.9243 z m 51.1162,-24.46993 c 9.7419,-3.59219 22.7251,-11.3604 32.9008,-19.68551 15.0923,-12.34748 28.5463,-35.94251 33.6763,-59.06017 5.0578,-22.79204 -0.3306,-48.95961 -14.7712,-71.73286 -16.6979,-26.33299 -40.7968,-41.30071 -76.3985,-47.45075 -4.8981,-0.84613 -10.0539,-1.33892 -11.4573,-1.09509 -22.7158,3.9464 -39.0899,9.48427 -51.283,17.34439 -13.582,8.75543 -29.165,27.32089 -36.3167,43.26736 -7.5151,16.75692 -9.662,28.3556 -8.8312,47.71148 0.6071,14.14516 2.937,22.95603 10.1704,38.4604 10.582,22.68215 24.0148,35.98835 49.1302,48.66704 13.5737,6.85222 17.7938,7.55198 43.047,7.1378 21.2696,-0.34884 21.4815,-0.3739 30.1332,-3.56409 z"
     id="path2355"
     transform="scale(0.75)" />
  <path
     style="fill:#333333;stroke-width:0.99629"
     d="m 2559.4685,472.03465 c 0.3697,-34.40775 1.0254,-67.93951 1.457,-74.51502 0.964,-14.68489 3.6886,-23.38925 12.1626,-38.85531 9.3979,-17.1525 18.605,-28.27158 32.1371,-38.81113 17.2001,-13.39628 31.5214,-20.5284 48.3926,-24.09987 6.3016,-1.33397 12.6192,-2.67351 14.0391,-2.97675 1.4199,-0.30325 9.9382,-0.0546 18.9295,0.55267 19.6917,1.32985 27.9769,3.57659 44.7421,12.13286 14.3011,7.29871 22.3907,13.3693 33.4326,25.08835 18.0773,19.18595 26.2307,34.40305 32.4125,60.49329 2.9985,12.65513 3.9054,39.43842 3.1963,94.39846 l -0.6202,48.07098 h -9.8015 -9.8015 V 464.63563 395.7581 l -3.5905,-10.07843 c -12.3055,-34.54196 -32.6824,-56.6124 -63.6591,-68.94986 -9.866,-3.92947 -23.5502,-5.72735 -38.3572,-5.03951 -14.2852,0.6636 -24.3753,2.94466 -35.2495,7.96887 -10.276,4.7478 -27.6533,16.77878 -32.9031,22.78011 -5.3965,6.16897 -15.8222,23.53752 -20.1644,33.59246 -5.9869,13.86361 -6.2976,17.71464 -7.3072,90.59701 -0.5037,36.36614 -1.0505,66.23126 -1.215,66.36694 -0.1644,0.13567 -4.4852,0.55084 -9.6017,0.92259 l -9.3027,0.67593 z"
     id="path2394"
     transform="scale(0.75)" />
  <path
     style="fill:#333333;stroke-width:0.99629"
     d="m 2910.9163,532.45165 c -3.4212,-0.44487 -7.2196,-1.50884 -8.4411,-2.36438 -1.2215,-0.85554 -3.2087,-1.55554 -4.416,-1.55554 -3.3581,0 -24.9285,-11.26064 -32.3662,-16.8965 -14.2482,-10.7965 -29.9083,-29.91273 -38.3668,-46.83418 -7.9311,-15.86653 -12.2985,-42.78045 -10.3298,-63.65714 2.1968,-23.29527 8.2561,-38.3007 24.7563,-61.3078 9.7962,-13.65937 16.6717,-19.63304 35.3886,-30.74676 12.3935,-7.35901 21.1856,-10.895 34.0175,-13.68107 14.7576,-3.2042 16.8154,-3.33264 33.2514,-2.07544 19.6171,1.50052 27.7133,3.63246 43.5759,11.47477 15.1261,7.4782 24.6878,14.32473 39.072,27.97698 l 10.2926,9.76886 -41.1731,41.18207 -41.1731,41.18207 -12.4581,-0.0152 c -6.852,-0.008 -13.0602,-0.39682 -13.796,-0.86316 -0.9793,-0.62073 6.3615,-8.70333 27.398,-30.16622 47.9505,-48.9225 49.1597,-50.21403 49.1597,-52.50438 0,-3.71817 -23.8062,-19.55428 -33.3757,-22.20178 -2.1918,-0.60639 -5.3979,-1.71871 -7.1246,-2.47182 -1.7267,-0.7531 -4.4166,-1.37459 -5.9777,-1.3811 -1.5611,-0.007 -5.3041,-0.67368 -8.3179,-1.48261 -7.6193,-2.04509 -18.9425,-1.85435 -30.5262,0.51423 -13.4614,2.75251 -18.2575,4.40862 -29.2701,10.10692 -17.7033,9.16031 -32.707,24.47133 -42.5761,43.44813 -6.3592,12.22772 -8.8691,20.44545 -10.3548,33.90298 -1.3028,11.80057 -0.01,36.30754 2.022,38.33982 0.6123,0.61236 1.1133,2.07221 1.1133,3.2441 0,2.85893 9.0727,21.26552 14.5264,29.47103 5.0912,7.66006 15.3216,17.62731 25.2475,24.59802 17.0082,11.94441 33.283,17.12717 53.7822,17.12717 14.422,0 28.1909,-1.48554 31.9152,-3.44336 1.4036,-0.73786 4.3533,-1.82094 6.555,-2.40684 8.2701,-2.20082 21.3276,-11.15502 33.7925,-23.1732 11.8026,-11.37975 12.1395,-11.82805 18.7162,-24.90725 7.316,-14.54944 9.5006,-21.66889 10.7659,-35.08583 0.4573,-4.84834 1.0923,-9.07608 1.4112,-9.39498 1.2791,-1.2791 17.4796,-1.47029 18.9813,-0.224 2.0094,1.66764 1.8767,5.83635 -0.5018,15.75745 -1.092,4.55537 -1.9856,9.32367 -1.9856,10.59622 0,1.27256 -0.6697,3.59789 -1.4883,5.16741 -0.8185,1.56953 -1.4975,3.97451 -1.5087,5.34441 -0.033,4.02771 -9.1553,21.74973 -15.7522,30.60236 -20.5208,27.53764 -40.8742,40.96882 -72.8909,48.10042 -7.3383,1.63456 -12.2636,1.97378 -27.1569,1.87036 -10.006,-0.0694 -20.9919,-0.49032 -24.413,-0.9352 z"
     id="path2433"
     transform="scale(0.75)" />
  <text
     xml:space="preserve"
     transform="matrix(0.75,0,0,0.75,266.00937,-41.844171)"
     id="text5652"
     style="font-style:normal;font-weight:normal;font-size:192px;line-height:1.25;font-family:sans-serif;white-space:pre;shape-inside:url(#rect5654);fill:#333333;fill-opacity:1;stroke:none"><tspan
       x="1721.5879"
       y="225.66797"
       id="tspan24328">Tecnología</tspan></text>
</svg>
