<?xml version="1.0" standalone="no"?>
<!DOCTYPE svg PUBLIC "-//W3C//DTD SVG 20010904//EN"
 "http://www.w3.org/TR/2001/REC-SVG-20010904/DTD/svg10.dtd">
<svg version="1.0" xmlns="http://www.w3.org/2000/svg"
 width="2551.000000pt" height="625.000000pt" viewBox="0 0 2551.000000 625.000000"
 preserveAspectRatio="xMidYMid meet">
<metadata>
Created by potrace 1.15, written by Peter Selinger 2001-2017
</metadata>
<g transform="translate(0.000000,625.000000) scale(0.100000,-0.100000)"
fill="#000000" stroke="none">
<path d="M6397 3381 c-445 -967 -811 -1768 -813 -1778 -4 -16 3 -23 38 -36 24
-10 48 -17 54 -17 5 0 33 51 61 113 45 100 277 604 1274 2773 164 358 299 655
299 661 0 10 -74 43 -95 43 -6 0 -374 -792 -818 -1759z"/>
<path d="M2080 4910 c-272 -73 -473 -277 -541 -550 -18 -72 -21 -103 -16 -215
6 -142 22 -208 76 -314 69 -136 160 -230 301 -312 117 -68 215 -93 370 -93
138 0 237 21 340 72 68 34 73 55 25 102 -34 33 -37 34 -68 21 -153 -62 -169
-66 -292 -66 -91 0 -133 5 -175 19 -258 87 -431 301 -455 561 -15 160 53 340
178 472 202 212 488 258 752 120 89 -47 201 -164 252 -262 94 -183 98 -363 12
-555 l-32 -71 38 -39 c22 -22 45 -40 51 -40 31 0 105 179 123 297 38 249 -34
475 -209 654 -86 87 -179 146 -295 185 -69 24 -99 28 -220 31 -116 2 -153 0
-215 -17z"/>
<path d="M4041 4911 c-207 -53 -402 -212 -491 -403 -55 -117 -73 -215 -68
-363 4 -106 10 -145 32 -211 32 -95 66 -158 86 -161 8 -1 33 13 55 33 38 34
39 35 26 67 -8 18 -27 70 -44 117 -57 160 -38 346 53 500 136 230 403 355 654
306 293 -58 516 -325 516 -616 0 -97 -22 -186 -67 -280 -51 -105 -178 -231
-283 -282 -110 -53 -201 -72 -313 -65 -101 7 -153 20 -240 63 l-59 29 -34 -40
c-46 -54 -44 -70 14 -99 185 -93 423 -109 614 -40 206 75 379 248 452 451 144
405 -65 841 -469 979 -69 24 -98 28 -220 31 -111 2 -155 -1 -214 -16z"/>
<path d="M11282 4817 l-72 -73 2 -1254 3 -1255 68 -3 c37 -2 74 1 82 6 14 7
16 164 18 1330 2 1179 0 1322 -13 1322 -9 0 -48 -33 -88 -73z"/>
<path d="M15937 4754 c-4 -4 -7 -392 -7 -862 0 -584 -3 -868 -11 -896 -52
-197 -86 -263 -198 -379 -75 -78 -193 -167 -221 -167 -6 0 -18 -4 -28 -9 -75
-38 -107 -44 -276 -48 -96 -3 -153 0 -159 6 -6 6 -21 11 -34 11 -26 0 -52 10
-152 59 -82 40 -218 159 -274 240 -46 68 -95 174 -117 257 -22 79 -28 275 -11
330 5 16 14 49 21 74 35 123 146 286 247 363 101 76 250 147 315 149 13 0 45
7 72 14 64 18 113 18 166 -1 23 -8 57 -15 75 -15 27 0 37 6 55 37 12 20 22 55
23 77 l2 40 -60 10 c-71 12 -281 13 -345 2 -112 -20 -227 -71 -356 -157 -62
-42 -208 -198 -245 -264 -45 -78 -89 -172 -89 -190 0 -7 -4 -16 -9 -19 -32
-20 -50 -443 -20 -462 5 -3 9 -18 9 -34 0 -16 6 -41 14 -57 8 -15 36 -72 62
-127 50 -102 121 -191 231 -288 103 -92 257 -164 423 -198 84 -18 360 -2 385
21 5 5 17 9 27 9 25 0 171 69 239 113 113 72 309 295 309 351 0 8 4 18 10 21
10 6 31 50 48 100 38 114 37 94 37 1005 l0 885 -75 3 c-42 1 -79 0 -83 -4z"/>
<path d="M2165 4401 c-87 -40 -135 -120 -135 -224 0 -157 123 -263 283 -243
l53 7 83 -93 c46 -51 176 -193 289 -316 l205 -223 1 -117 1 -117 -75 -80 c-41
-44 -77 -82 -80 -85 -3 -3 -29 -32 -59 -65 -30 -33 -80 -87 -110 -120 -31 -33
-99 -107 -152 -165 l-97 -105 -75 3 c-92 5 -136 -9 -190 -57 -55 -49 -77 -101
-77 -182 -1 -263 342 -343 466 -109 15 27 19 55 18 123 l-1 88 176 162 c97 88
237 219 312 289 l137 128 53 -11 c37 -7 71 -8 109 -1 l55 10 50 -46 c176 -164
309 -286 440 -405 l150 -137 -4 -75 c-2 -66 1 -83 24 -131 87 -178 349 -175
439 4 46 90 24 218 -48 288 -55 52 -112 69 -211 61 l-73 -5 -33 36 c-18 21
-130 142 -249 271 -118 128 -232 253 -253 277 l-39 44 0 114 -1 114 175 188
c96 104 228 248 294 320 l119 131 40 -9 c110 -26 225 27 278 127 34 62 31 175
-6 237 -48 83 -115 118 -221 118 -76 0 -129 -24 -177 -77 -49 -54 -63 -100
-57 -192 l5 -76 -62 -55 c-139 -125 -297 -271 -500 -460 l-70 -65 -117 0 -117
1 -108 98 c-59 55 -140 129 -178 165 -39 36 -113 104 -165 151 -192 172 -182
160 -170 200 32 111 -20 235 -120 286 -58 30 -166 32 -225 5z"/>
<path d="M9995 4058 c-190 -35 -368 -132 -505 -275 -86 -89 -101 -109 -158
-213 -61 -112 -99 -237 -106 -350 -6 -102 5 -246 22 -295 6 -16 16 -48 22 -70
16 -53 73 -166 119 -235 45 -69 154 -185 205 -219 116 -78 153 -100 169 -100
9 -1 17 -5 17 -11 0 -5 9 -10 20 -10 11 0 28 -4 38 -9 40 -20 123 -41 210 -51
246 -31 526 68 720 254 102 97 206 269 247 406 9 30 22 68 28 85 7 17 11 91
10 180 -1 145 -2 153 -38 260 -58 173 -122 279 -237 392 -65 63 -232 183 -255
183 -5 0 -27 8 -49 18 -37 18 -104 37 -207 61 -55 13 -200 12 -272 -1z m275
-176 c76 -13 102 -23 205 -74 175 -88 326 -267 373 -443 23 -86 25 -104 25
-220 0 -186 -20 -256 -120 -428 -19 -33 -155 -167 -198 -195 -110 -71 -195
-104 -320 -124 -63 -10 -209 -4 -260 11 -134 40 -180 61 -255 115 -100 72
-186 172 -234 271 -25 49 -49 106 -54 125 -6 19 -16 53 -22 75 -17 58 -8 276
14 350 44 151 147 308 253 387 63 46 219 128 245 128 9 0 20 5 23 10 3 6 27
10 53 11 26 0 56 4 67 9 22 10 122 6 205 -8z"/>
<path d="M12255 4058 c-158 -29 -299 -94 -430 -198 -65 -52 -119 -108 -149
-155 -11 -16 -26 -37 -34 -45 -24 -23 -110 -209 -128 -275 -32 -116 -39 -351
-12 -450 55 -206 160 -374 318 -506 88 -73 169 -117 296 -162 l119 -41 165 0
c131 0 173 4 203 17 43 18 45 33 17 96 -11 24 -20 49 -20 56 0 19 -29 26 -53
13 -34 -18 -269 -15 -339 5 -163 45 -303 143 -409 284 -38 51 -109 188 -109
211 0 7 -4 20 -9 30 -15 29 -31 135 -31 204 0 160 54 313 159 455 76 102 133
151 246 211 95 49 116 57 205 74 93 18 311 9 335 -13 5 -5 15 -9 22 -9 40 0
233 -113 295 -172 77 -74 147 -196 200 -348 23 -64 23 -76 28 -585 l5 -520 76
-3 c57 -2 79 1 88 12 14 17 9 916 -6 1031 -10 77 -49 198 -89 278 -66 129
-197 275 -324 359 -82 54 -188 108 -212 108 -7 0 -30 6 -53 14 -101 35 -257
45 -370 24z"/>
<path d="M9155 4050 c-38 -4 -81 -12 -95 -17 -14 -6 -45 -17 -70 -24 -111 -32
-259 -127 -364 -234 -92 -93 -165 -207 -203 -316 -34 -96 -43 -148 -53 -299
-7 -116 -16 -176 -35 -225 -48 -125 -124 -245 -194 -307 -56 -49 -160 -117
-221 -144 -71 -32 -193 -64 -242 -64 -19 0 -39 -5 -46 -12 -16 -16 -16 -154 0
-164 22 -14 191 6 230 27 10 5 26 9 35 9 31 0 235 108 296 157 123 97 255 286
302 433 10 30 21 65 26 78 5 13 9 59 9 102 0 135 27 288 68 385 69 162 201
303 352 377 124 61 151 68 247 68 93 0 93 0 93 90 0 98 6 94 -135 80z"/>
<path d="M18059 4056 c-2 -3 -29 -10 -59 -15 -100 -18 -115 -23 -175 -52 -224
-108 -373 -252 -470 -454 -29 -60 -56 -123 -60 -140 -3 -16 -11 -50 -16 -75
-17 -72 -22 -249 -10 -310 20 -97 74 -253 105 -305 72 -120 201 -265 287 -323
58 -39 171 -95 224 -112 22 -7 49 -16 60 -20 31 -12 173 -30 234 -30 89 0 232
27 296 56 17 7 52 23 79 34 84 35 202 121 260 189 12 14 39 45 61 70 68 77
133 197 166 306 6 22 18 58 25 80 20 59 19 309 -2 383 -51 188 -122 316 -243
446 -37 39 -123 107 -176 139 -61 36 -194 97 -212 97 -10 0 -23 4 -28 9 -6 5
-32 12 -60 16 -68 9 -279 17 -286 11z m216 -162 c237 -54 368 -133 493 -297
35 -46 51 -74 107 -187 7 -14 18 -50 25 -80 6 -30 16 -71 21 -91 44 -175 -67
-487 -228 -640 -54 -52 -183 -139 -234 -158 -19 -7 -43 -17 -54 -21 -42 -18
-84 -23 -210 -27 -120 -4 -201 4 -260 27 -105 40 -268 147 -313 206 -68 87
-85 113 -111 168 -16 34 -42 97 -57 141 -25 72 -27 94 -27 210 0 126 4 151 40
250 60 161 183 317 311 393 29 18 55 32 57 32 3 0 24 8 48 19 68 30 99 40 152
47 28 4 59 10 70 15 32 13 95 10 170 -7z"/>
<path d="M18130 3273 c-92 -47 -87 -180 7 -220 102 -42 202 58 160 160 -28 65
-104 93 -167 60z"/>
<path d="M19990 4056 c-3 -3 -30 -10 -60 -15 -98 -18 -114 -22 -170 -48 -142
-64 -281 -169 -362 -272 -58 -72 -70 -91 -124 -196 -36 -67 -42 -86 -67 -185
-7 -29 -12 -235 -14 -573 l-3 -528 75 3 75 3 4 495 c3 566 6 591 84 745 41 82
101 173 142 215 32 32 165 123 215 145 114 51 181 65 317 65 96 -1 140 -5 158
-15 14 -8 37 -14 52 -15 15 0 30 -4 33 -10 3 -5 14 -10 23 -10 10 0 52 -20 93
-44 170 -100 284 -244 356 -451 l28 -80 2 -520 3 -520 78 0 77 0 3 470 c2 396
0 483 -14 550 -17 86 -31 140 -45 167 -5 10 -9 24 -9 31 0 21 -48 116 -92 182
-48 71 -163 192 -233 244 -63 47 -229 131 -259 131 -12 0 -26 4 -31 9 -6 5
-30 12 -55 15 -67 10 -274 19 -280 12z"/>
<path d="M21910 4056 c-3 -3 -30 -9 -60 -15 -91 -16 -129 -28 -194 -60 -87
-43 -213 -126 -264 -175 -46 -44 -141 -178 -184 -261 -98 -186 -115 -420 -50
-675 42 -166 220 -397 384 -498 78 -48 172 -92 199 -92 10 0 20 -4 23 -9 10
-15 74 -23 221 -28 133 -4 182 1 290 29 80 21 174 60 236 97 122 74 291 267
343 391 10 25 22 53 27 62 5 10 9 29 9 42 0 14 5 28 10 31 6 3 10 21 10 38 0
18 7 54 15 81 18 59 19 112 3 122 -14 9 -140 5 -151 -5 -4 -4 -7 -34 -8 -67
-1 -82 -40 -207 -90 -285 -16 -25 -29 -51 -29 -56 0 -20 -164 -180 -222 -216
-72 -46 -137 -77 -159 -77 -10 0 -20 -4 -23 -9 -8 -13 -75 -22 -201 -28 -103
-4 -126 -1 -240 29 -112 30 -276 142 -359 246 -54 69 -136 225 -136 261 0 11
-4 23 -10 26 -5 3 -10 32 -11 63 -1 31 -4 68 -8 81 -7 27 6 179 21 236 51 196
202 387 375 477 89 45 121 56 228 78 101 21 149 23 205 6 30 -9 68 -16 86 -16
18 0 36 -4 39 -10 3 -5 16 -10 27 -10 53 0 278 -141 278 -175 0 -5 -133 -144
-295 -307 -162 -163 -295 -302 -295 -307 0 -10 52 -14 169 -14 l43 1 311 311
311 311 -74 73 c-115 113 -171 153 -307 222 -109 56 -193 75 -368 82 -66 2
-123 2 -125 -1z"/>
<path d="M14210 4044 c-119 -19 -149 -28 -250 -78 -136 -67 -180 -99 -276
-198 -44 -45 -92 -99 -105 -118 -64 -89 -123 -221 -142 -315 -6 -30 -11 -261
-11 -570 l-1 -520 82 -3 81 -3 4 528 4 528 26 65 c37 94 49 120 77 165 90 143
178 222 325 290 99 47 124 53 236 63 l75 7 0 80 0 80 -50 1 c-27 1 -61 0 -75
-2z"/>
<path d="M17140 4039 c-108 -10 -159 -19 -166 -30 -3 -5 -14 -9 -24 -9 -18 0
-91 -36 -170 -83 -89 -54 -239 -185 -240 -209 0 -4 -13 -22 -29 -40 -41 -48
-121 -189 -121 -215 0 -12 -4 -24 -9 -27 -9 -6 -17 -36 -31 -131 -5 -33 -9
-283 -10 -555 l-1 -495 80 -3 81 -3 0 507 c0 310 4 521 10 541 6 18 15 50 21
71 62 205 233 393 429 473 72 29 122 40 195 45 111 8 106 4 103 92 -3 88 6 82
-118 71z"/>
<path d="M2082 2951 c-264 -65 -476 -279 -543 -551 -29 -112 -23 -310 11 -410
88 -259 281 -441 535 -506 105 -27 286 -24 389 5 284 80 492 309 542 595 28
159 7 320 -61 464 -39 82 -52 87 -102 42 -40 -36 -41 -51 -8 -118 77 -160 73
-355 -12 -532 -28 -59 -54 -94 -122 -160 -141 -140 -286 -197 -471 -187 -202
12 -374 111 -489 283 -209 312 -96 730 244 903 169 85 346 90 524 14 l83 -36
40 41 c28 27 39 45 35 57 -9 21 -121 72 -215 96 -99 25 -277 25 -380 0z"/>
<path d="M4045 2954 c-92 -23 -225 -89 -225 -111 0 -23 60 -83 82 -83 9 0 45
14 80 30 234 110 506 56 694 -135 282 -289 230 -743 -110 -964 -391 -255 -917
10 -961 484 -8 89 14 203 56 297 l32 69 -38 39 c-22 22 -47 40 -56 40 -22 0
-81 -132 -103 -227 -20 -88 -21 -254 -2 -344 57 -268 267 -489 534 -561 113
-30 299 -30 406 1 244 68 433 244 510 472 96 286 33 578 -169 784 -91 93 -181
150 -300 191 -71 24 -97 28 -225 30 -103 2 -162 -2 -205 -12z"/>
</g>
</svg>
