<svg width="112" height="112" viewBox="0 0 112 112" fill="none" xmlns="http://www.w3.org/2000/svg">
<path d="M17.9891 0.565832C9.24455 2.90861 2.78258 9.45556 0.596434 18.2169C0.0177493 20.5276 -0.0786981 21.5225 0.0820476 25.1169C0.274942 29.6741 0.789329 31.7922 2.52538 35.194C4.74367 39.5587 7.66925 42.5754 12.2023 45.207C15.9637 47.3893 19.1143 48.1917 24.0975 48.1917C28.534 48.1917 31.7168 47.5177 35.0282 45.881C37.2143 44.7898 37.3751 44.1159 35.8319 42.6075C34.7388 41.5484 34.6424 41.5163 33.6458 41.9335C28.7269 43.9233 28.2126 44.0517 24.2582 44.0517C21.3326 44.0517 19.9824 43.8912 18.6321 43.4419C10.3376 40.6498 4.77582 33.782 4.00424 25.4378C3.52201 20.3029 5.70815 14.5262 9.72679 10.29C16.2209 3.48628 25.4156 2.01001 33.903 6.43883C36.7642 7.94719 40.3649 11.7021 42.0045 14.8472C45.0266 20.7202 45.1552 26.4969 42.3903 32.6587L41.3616 34.9373L42.5832 36.1889C43.2905 36.895 44.0299 37.4726 44.2228 37.4726C45.2195 37.4726 47.5985 31.728 48.1772 27.941C49.3988 19.9499 47.0841 12.6969 41.458 6.95231C38.6932 4.16023 35.7033 2.26675 31.974 1.01513C29.7557 0.244904 28.7912 0.116532 24.9012 0.0202536C21.1719 -0.0439321 19.9824 0.0202536 17.9891 0.565832Z" fill="black"/>
<path d="M81.0337 0.533739C74.3788 2.23466 68.1097 7.33743 65.2484 13.4672C63.4802 17.222 62.9015 20.3671 63.0623 25.1169C63.1909 28.5187 63.3838 29.7703 64.0911 31.8885C65.1198 34.9373 66.2129 36.9592 66.8559 37.0554C67.1131 37.0875 67.9168 36.6382 68.6241 35.9964C69.8457 34.9052 69.8779 34.8731 69.46 33.8461C69.2028 33.2685 68.5919 31.5996 68.0454 30.0913C66.2129 24.9564 66.8237 18.9871 69.7493 14.0448C74.1216 6.66348 82.7054 2.65187 90.7748 4.22442C100.195 6.08581 107.364 14.6546 107.364 23.9936C107.364 27.1066 106.657 29.9629 105.21 32.9796C103.57 36.3494 99.4873 40.3931 96.1116 42.0298C92.5752 43.7307 89.6496 44.3405 86.0489 44.1159C82.8019 43.8912 81.1301 43.474 78.3331 42.094L76.4363 41.1633L75.3433 42.447C73.8644 44.18 73.9287 44.6935 75.7933 45.6242C81.7409 48.6089 89.3924 49.1223 95.5329 46.9079C102.156 44.501 107.717 38.9489 110.064 32.4341C114.694 19.4364 107.975 5.44395 94.9864 1.01513C92.7681 0.244904 91.8358 0.116532 87.9136 0.0202534C84.345 -0.0439323 82.9305 0.0523463 81.0337 0.533739Z" fill="black"/>
<path d="M20.7218 16.9012C17.9248 18.1849 16.3817 20.7523 16.3817 24.09C16.3817 29.1286 20.336 32.5304 25.4799 31.8886L27.1838 31.6639L29.8522 34.6485C31.331 36.2853 35.5104 40.8425 39.1433 44.7899L45.7338 51.9466L45.766 55.7015L45.7981 59.4563L43.3869 62.0238C42.0688 63.4359 40.9115 64.6554 40.815 64.7517C40.7186 64.8479 39.8827 65.7786 38.9182 66.8377C37.9537 67.8968 36.3463 69.6298 35.3818 70.6888C34.3852 71.7479 32.199 74.1228 30.4951 75.9842L27.3767 79.3539L24.9655 79.2576C22.0078 79.0972 20.5932 79.5465 18.8571 81.0869C17.0889 82.6595 16.3817 84.3283 16.3817 86.9278C16.3495 95.3683 27.3767 97.9357 31.3632 90.426C31.8454 89.5595 31.974 88.6609 31.9418 86.4785L31.9097 83.6544L37.568 78.4553C40.6864 75.6311 45.1873 71.427 47.5985 69.1805L52.0029 65.0726L53.7068 65.4256C54.8963 65.6503 55.9894 65.6824 57.2111 65.4577L58.9793 65.1368L60.5867 66.6131C66.245 71.8763 70.5208 75.7916 74.7324 79.6107L79.5547 84.0074L79.4261 86.4144C79.3618 88.5325 79.4583 89.0781 80.1977 90.6185C82.9947 96.3311 91.4178 96.2348 94.3112 90.4901C95.7901 87.6018 95.0828 83.4939 92.768 81.2474C90.9998 79.5786 89.1673 79.033 85.9846 79.2897L83.6377 79.4502L82.5768 78.2949C81.9981 77.6209 78.3974 73.7377 74.5716 69.5977C70.778 65.4898 67.113 61.4782 66.4379 60.708L65.1841 59.2959V55.6373L65.1519 51.9787L70.778 45.9452C73.8643 42.6076 78.108 37.9862 80.2299 35.6755L84.0556 31.4714L85.3416 31.7602C88.878 32.5946 92.5751 30.8937 94.279 27.6844C95.3721 25.6946 95.2757 22.0681 94.0862 20.0784C92.543 17.4147 90.389 16.2914 86.9812 16.2914C84.5379 16.2914 82.8339 17.0617 81.2908 18.7626C79.7155 20.4956 79.2654 21.9719 79.4583 24.9244L79.619 27.3635L77.6258 29.1286C73.1571 33.1402 68.0775 37.8257 61.5512 43.8913L59.3008 45.9773H55.5393L51.7779 45.9452L48.3058 42.8001C46.409 41.035 43.8049 38.6602 42.5832 37.5048C41.3294 36.3495 38.9504 34.1672 37.2786 32.6588C31.106 27.1388 31.4275 27.5239 31.8133 26.2402C32.842 22.6779 31.1703 18.6984 27.9554 17.0617C26.0907 16.0989 22.6186 16.0347 20.7218 16.9012Z" fill="black"/>
<path d="M18.0534 63.4358C9.56607 65.5219 2.75045 72.3897 0.596461 81.119C-0.335864 84.7134 -0.142969 91.0678 0.950102 94.2771C3.77923 102.589 9.98401 108.43 18.1499 110.516C21.5256 111.383 27.3446 111.286 30.6559 110.356C39.7863 107.788 46.4733 100.439 48.0808 91.2603C48.9809 86.1576 48.3058 80.9906 46.1197 76.3693C44.8658 73.7376 44.4479 73.5772 42.8404 75.0214C41.5545 76.1767 41.5223 76.6581 42.5832 78.8083C45.0587 83.9432 44.9301 90.2013 42.1975 95.8817C41.2973 97.7752 40.4614 98.8984 38.2753 101.017C33.7422 105.51 29.0806 107.339 23.133 107.018C16.6389 106.633 11.1092 103.456 7.41208 97.9357C0.692908 87.9227 4.32576 74.5079 15.2565 68.9558C20.6897 66.2279 26.3801 66.0674 32.1026 68.5065L34.771 69.6618L36.057 68.346C36.9571 67.4795 37.3108 66.9019 37.1822 66.5167C36.8928 65.8428 33.2921 64.2061 30.2701 63.4358C27.0874 62.6335 21.3648 62.6335 18.0534 63.4358Z" fill="black"/>
<path d="M81.1622 63.3396C78.2045 64.0777 73.9286 66.1958 73.9286 66.9019C73.9286 67.64 75.8576 69.5656 76.5649 69.5656C76.8542 69.5656 78.0116 69.1163 79.1368 68.6028C86.6597 65.0726 95.4043 66.8056 101.448 72.9353C110.514 82.2102 108.843 96.7803 97.9119 103.873C85.3416 112.057 68.4311 103.552 67.0166 88.3399C66.7594 85.4836 67.4666 81.8251 68.8169 78.8083L69.8457 76.5939L68.624 75.3423C67.9167 74.6362 67.113 74.0586 66.8237 74.0586C66.1164 74.0586 64.2196 78.2948 63.5123 81.3437C62.8693 84.1678 62.8372 89.4953 63.448 92.3836C65.2805 100.984 72.0318 108.077 80.6156 110.388C84.2485 111.35 90.2282 111.35 93.6682 110.356C101.513 108.173 107.589 102.525 110.064 95.2078C113.151 86.0292 111.125 76.6581 104.631 70.047C101.705 67.0623 98.8121 65.233 94.9863 63.9172C92.7037 63.147 91.8679 63.0186 87.7528 62.9544C84.4414 62.8903 82.5446 63.0186 81.1622 63.3396Z" fill="black"/>
</svg>
