<svg width="691" height="169" viewBox="0 0 691 169" fill="none" xmlns="http://www.w3.org/2000/svg">
<path d="M217.213 113.49C217.394 111.362 217.42 111.342 221.145 110.409C223.208 109.892 226.234 108.612 227.87 107.564C233.607 103.889 236.354 98.9268 237.177 90.7511C237.994 82.6355 240.057 78.2125 245.241 73.4599C249.728 69.3469 255.737 66.6504 259.591 67.0203C261.263 67.1808 261.476 67.3945 261.476 68.9156C261.476 70.554 261.344 70.6461 258.502 70.9924C252.309 71.7469 246.339 76.0944 243.46 81.9468C242.12 84.6699 241.595 86.7431 241.19 90.9174C240.901 93.9034 240.268 97.4469 239.783 98.792C238.601 102.073 235.25 107.026 232.7 109.262C229.983 111.642 223.272 114.752 219.789 115.243L217.031 115.632L217.213 113.49Z" fill="#F3F4F6"/>
<path d="M283.463 116.239C281.215 116.077 278.682 115.553 277.061 114.914C274.866 114.316 272.827 113.065 270.993 111.859C269.56 110.907 269.128 110.544 267.737 109.124C265.902 107.252 264.874 105.962 263.845 104.24C262.698 102.319 261.646 100.107 261.228 98.7377C261.103 98.3262 260.891 97.6492 260.758 97.2331C260.321 95.8635 260.08 93.5714 260.082 90.797C260.084 88.5856 260.215 87.4556 260.694 85.5242C261.374 82.7797 262.848 79.5375 264.53 77.0827C265.635 75.4703 268.101 72.9422 270.038 71.4363C273.268 68.9243 277.242 67.1386 281.048 66.4888C282.699 66.2068 286.497 66.1609 287.846 66.4067C289.675 66.7399 292.495 67.5615 294.322 68.2936C294.716 68.4513 295.166 68.6204 295.324 68.6695C296.417 69.0099 300.592 72.1011 302.409 73.9153C305.362 76.8641 307.042 79.7582 308.67 84.7027C309.251 86.4671 309.37 87.0639 309.466 88.703C309.556 90.2416 309.505 94.4941 309.387 95.2673C309.294 95.8723 308.276 99.0322 307.805 100.176C306.835 102.532 305.277 105.171 303.646 107.225C301.411 110.037 298.072 112.554 294.478 114.136C292.719 114.911 290.558 115.587 288.812 115.911C287.252 116.2 284.916 116.343 283.463 116.239ZM288.025 111.28C290.845 110.753 292.776 110.027 295.194 108.585C296.472 107.823 297.461 106.995 299.345 105.111C300.848 103.608 301.29 103.064 301.928 101.939C303.446 99.2609 304.169 97.3794 304.478 95.3018C304.757 93.4243 304.799 89.1151 304.554 87.4902C304.416 86.5768 303.95 84.7897 303.617 83.8972C302.67 81.3613 301.159 79.0862 298.978 76.9142C297.803 75.7442 297.117 75.1805 295.789 74.2949C294.768 73.6139 292.488 72.4403 291.237 71.9519C289.523 71.2827 286.946 70.865 284.447 70.8511C282.06 70.7475 279.987 71.268 277.936 72.0987C276.726 72.6012 273.813 74.1837 272.653 74.9674C269.852 76.8611 267.014 80.9045 265.649 84.9474C265.084 86.6198 264.882 88.2088 264.824 91.4227C264.798 92.8728 264.813 93.8795 264.865 94.3263C264.97 95.2134 265.619 97.4081 266.135 98.6254C266.69 99.9316 267.617 101.715 268.183 102.561C269.691 104.821 271.798 106.911 274.123 108.454C275.638 109.46 276.908 110.029 279.298 110.772C281.225 111.372 282.582 111.533 285.377 111.492C286.783 111.471 287.169 111.441 288.025 111.28Z" fill="#F3F4F6"/>
<path d="M314.529 115.763L313.983 115.735L313.94 95.3257C313.916 84.1004 313.879 68.8562 313.859 61.4496L313.821 47.9831L315.202 46.5891C316.879 44.8977 318.028 43.9094 318.163 44.0439C318.447 44.3276 318.494 50.1104 318.445 78.595C318.395 108.045 318.326 114.826 318.07 115.491C317.978 115.73 317.738 115.772 316.398 115.781C315.67 115.787 314.829 115.778 314.529 115.763Z" fill="#F3F4F6"/>
<path d="M339.584 115.287C338.541 114.921 337.301 114.467 336.828 114.279C333.533 112.966 331.096 111.352 328.527 108.78C325.597 105.845 323.44 102.246 322.149 98.1379C321.434 95.8596 321.372 95.3628 321.372 91.9176C321.372 90.1212 321.404 88.8525 321.463 88.3458C321.705 86.257 321.932 85.0846 322.307 83.9862C322.905 82.233 324.799 78.247 325.411 77.4521C325.607 77.1967 326.047 76.602 326.388 76.1305C327.848 74.1094 329.405 72.5964 331.721 70.9448C334.81 68.7429 338.075 67.3213 341.697 66.6012C343.308 66.2809 344.221 66.2122 346.27 66.2574C348.693 66.3108 350.029 66.5135 352.044 67.1338C352.62 67.3109 353.269 67.4848 353.487 67.5202C354.393 67.6674 356.602 68.7548 358.762 70.1166C362.745 72.628 366.75 77.1296 368.461 81.0172C369.239 82.7836 369.984 85.111 370.314 86.8023C370.425 87.3706 370.518 88.2037 370.565 89.0602C370.881 94.7408 370.945 114.621 370.649 115.397C370.518 115.74 370.272 115.778 368.22 115.766C367.185 115.76 366.32 115.738 366.3 115.718C366.279 115.697 366.233 112.825 366.199 109.335C366.017 91.1415 365.963 88.5707 365.734 87.2586C365.552 86.2103 364.782 84.1389 363.875 82.2533C362.363 79.1123 360.816 77.0343 358.93 75.611C354.624 72.4249 350.542 70.9627 346.031 70.9523C344.029 70.9531 343.001 71.0382 341.631 71.3162C340.168 71.6129 339.258 71.9253 337.823 72.6233C334.515 74.2322 332.682 75.5944 330.89 77.7735C328.088 81.1834 326.447 84.7298 325.868 88.6316C325.692 89.8125 325.693 92.5501 325.87 93.8106C326.051 95.1055 326.259 96.0574 326.494 96.6688C326.607 96.9639 326.732 97.3719 326.77 97.5755C326.858 98.0356 327.08 98.5657 327.722 99.8462C329.033 102.463 329.971 103.805 331.733 105.587C334.266 108.148 337.279 109.956 340.611 110.915C341.45 111.157 342.501 111.287 344.414 111.389C346.894 111.52 349.351 111.394 350.11 111.095C350.855 110.802 351.321 110.971 351.453 111.584C351.493 111.772 351.702 112.342 351.916 112.851C352.579 114.425 352.611 114.695 352.188 115.097C349.79 116.582 341.591 115.934 339.584 115.287Z" fill="#F3F4F6"/>
<path d="M375.578 115.523C374.968 115.496 374.332 115.47 374.165 115.465L373.861 115.455L373.863 106.079C373.863 96.762 373.944 89.5729 374.073 87.3015C374.121 86.451 374.191 85.9138 374.32 85.407C374.917 83.056 376.233 80.1798 377.736 77.9394C378.375 76.9874 379.374 75.8674 381.299 73.9483C383.746 71.5078 384.663 70.8435 387.708 69.3065C390.788 67.7524 392.048 67.3344 394.909 66.9187C395.679 66.8069 397.465 66.7702 398.075 66.8537L398.407 66.8991V68.9953V71.0916L398.246 71.1239C398.157 71.1416 397.344 71.2243 396.439 71.3075C393.124 71.6124 392.376 71.8273 389.319 73.3536C385.789 75.1158 383.588 77.1222 381.338 80.6308C380.607 81.7718 380.111 82.8104 379.172 85.1669L378.389 87.1314L378.306 100.847C378.26 108.39 378.204 114.795 378.183 115.08L378.143 115.598L377.416 115.585C377.016 115.578 376.189 115.55 375.579 115.523L375.578 115.523Z" fill="#F3F4F6"/>
<path d="M416.176 114.902C409.737 113.238 404.346 109.353 400.967 103.942C399.718 101.941 398.041 97.8245 397.858 97.0974C397.778 96.7762 397.753 96.7598 397.605 96.2275C397.534 95.9722 397.356 94.8628 397.366 91.6915C397.38 87.3127 397.809 84.8137 398.172 83.9312C398.314 83.5838 398.314 83.5588 398.466 83.1881C398.675 82.6768 400.872 78.0909 401.802 76.8882C403.444 74.7636 406.593 71.7273 408.335 70.5909C411.187 68.7292 414.519 67.3311 417.1 66.9131C418.825 66.6337 423.796 66.6417 426.029 66.9276L427.814 67.1561L427.812 67.9884C427.81 68.9576 427.004 70.8213 426.505 71.0125C421.094 70.5101 417.247 70.4458 412.775 72.7222C410.083 74.1023 408.659 75.0885 407.164 76.6085C404.65 79.1647 402.626 82.6764 401.696 86.0957C401.303 87.5414 401.232 88.2766 401.247 90.7428C401.268 94.141 401.605 96.0496 402.64 98.6302C404.104 102.283 406.011 104.815 409.262 107.425C411.064 108.872 414.731 110.81 416.378 111.187C417.773 111.506 423.729 111.622 425.637 111.368C426.56 111.244 428.052 110.825 429.264 110.348C431.603 109.427 433.323 108.216 435.799 105.749C438.588 102.97 439.744 101.018 440.992 96.9808L441.64 94.8848L441.711 72.9626C441.75 60.9054 441.835 50.2903 441.9 49.3736L442.018 47.7067H444.036H446.054L445.976 71.5988C445.89 97.9085 445.96 96.474 444.615 99.6973C444.266 100.536 443.842 101.298 443.745 101.461C443.643 101.633 443.467 101.945 443.336 102.22C442.722 103.509 438.796 108.583 436.096 110.657C434.505 111.879 431.114 113.623 428.869 114.373C426.489 115.169 424.831 115.381 421.033 115.376C418.519 115.373 417.685 115.292 416.176 114.902Z" fill="#F3F4F6"/>
<path d="M454.158 115.445L452.875 115.372L452.971 101.189C453.051 89.1854 453.116 86.7739 453.391 85.5026C453.569 84.6763 453.808 83.908 453.921 83.7953C454.034 83.6825 454.126 83.4427 454.126 83.2624C454.126 82.23 457.181 77.1522 459.076 75.0348C460.155 73.8294 462.609 71.8094 464.383 70.666C465.95 69.6556 469.015 68.1134 469.455 68.1134C469.604 68.1134 469.929 67.9801 470.178 67.8171C470.793 67.4153 476.919 66.7419 477.221 67.043C477.34 67.1621 477.487 67.9789 477.547 68.8582C477.689 70.9243 477.568 71.0545 475.335 71.2403C470.527 71.6402 466.936 73.2316 463.466 76.4985C460.802 79.0073 459.086 81.7231 457.85 85.3885L457.1 87.611L457.003 101.603L456.906 115.595L456.174 115.556C455.771 115.534 454.864 115.484 454.158 115.445Z" fill="#F3F4F6"/>
<path d="M501.691 93.6277C499.237 92.7073 498.894 89.4401 501.094 87.9474C501.676 87.5528 501.985 87.4877 502.958 87.5557C503.954 87.6252 504.228 87.7374 504.835 88.3255C506.112 89.561 506.255 91.3109 505.184 92.5827C504.35 93.5721 502.788 94.0393 501.691 93.6277Z" fill="#F3F4F6"/>
<path d="M498.642 115.716C497.689 115.57 496.278 115.247 495.505 114.997C493.696 114.412 489.936 112.588 488.636 111.666C486.108 109.871 481.975 105.1 480.61 102.399C479.756 100.711 478.271 96.1446 477.988 94.3375C477.695 92.4692 477.9 88.4926 478.417 85.9812C478.989 83.2066 480.665 79.6442 482.826 76.6104C485.776 72.4699 491.972 68.2477 496.504 67.2903C499.004 66.5035 501.748 66.5793 503.65 66.6898C507.883 66.9407 509.037 67.2356 512.765 69.0177C517.84 71.4445 521.598 75.0794 524.142 80.0234C525.21 82.1 526.248 84.936 526.598 86.7406C526.713 87.3305 526.807 89.4497 526.808 91.45C526.808 94.7715 526.763 95.2445 526.281 96.9052C525.027 101.223 523.483 104.116 520.687 107.386C517.942 110.595 515.389 112.477 511.64 114.057C508.452 115.4 506.575 115.811 503.209 115.903C501.481 115.951 499.699 115.877 498.642 115.716ZM509.027 110.753C511.006 110.025 513.644 108.449 515.711 106.761C518.777 104.257 521.51 99.472 522.552 94.7837C523.58 90.1615 522.485 84.8547 519.552 80.2363C516.159 74.896 511.263 71.8605 504.031 70.6133C500.14 69.951 494.172 72.0956 491.285 73.9087C488.525 75.6843 485.36 79.4493 483.907 82.6833C482.38 86.0816 481.944 88.4338 482.113 92.3592C482.236 95.2278 482.709 97.0147 484.179 100.159C486.329 104.759 489.058 107.457 494.16 110.029C496.917 111.418 497.775 111.56 502.905 111.476C507.226 111.405 507.269 111.4 509.027 110.753Z" fill="#F3F4F6"/>
<path d="M530.128 102.925C530.203 95.9468 530.336 89.1465 530.424 87.813C530.62 84.8349 531.173 83.0697 532.895 79.9332C534.804 76.4546 536.675 74.1997 539.424 72.0623C542.918 69.3455 545.828 67.8991 549.255 67.1748C550.535 66.9043 551.819 66.6326 552.107 66.5711C552.396 66.5096 554.126 66.5601 555.953 66.6832C559.953 66.9529 561.636 67.4086 565.042 69.1438C567.948 70.6239 569.591 71.8551 571.834 74.2317C575.507 78.1226 577.163 81.2086 578.419 86.4997C579.028 89.0662 579.213 94.4978 579.068 105.644L578.942 115.393H576.951H574.96V101.424C574.482 96.1208 576.023 90.4343 574.231 85.4119C571.731 78.4068 567.591 73.9309 561.298 71.4289C559.294 70.632 556.514 70.2674 553.505 70.4068C550.603 70.5414 548.553 71.004 546.344 72.0229C544.257 72.9858 540.726 75.4257 539.66 76.6427C538.563 77.8938 536.445 81.4161 535.563 83.4553C534.347 86.2668 534.284 87.0478 534.079 101.828C533.976 109.203 534.005 115.581 534.006 115.632C532.65 115.643 531.482 115.612 529.991 115.612L530.128 102.925Z" fill="#F3F4F6"/>
<path d="M592.339 110.956C589.445 108.766 586.263 104.889 584.545 101.458C582.934 98.2399 582.046 92.7818 582.446 88.548C582.893 83.8237 584.124 80.7806 587.476 76.1148C589.466 73.3447 590.863 72.1332 594.665 69.8793C597.183 68.3869 598.969 67.6698 601.576 67.1048C604.574 66.455 604.992 66.429 608.331 66.6839C612.317 66.9882 613.961 67.4206 617.184 69.011C620.257 70.5276 622.199 71.9161 625.122 74.6847L627.213 76.6659L618.848 85.0176L610.483 93.3693L607.953 93.3662C606.561 93.3646 605.299 93.2858 605.15 93.1912C604.951 93.0653 606.442 91.4261 610.716 87.0735C620.457 77.152 620.703 76.8901 620.703 76.4256C617.611 71.5515 608.085 70.0154 603.369 70.9453C600.635 71.5035 599.66 71.8394 597.423 72.995C593.826 74.8527 590.778 77.9578 588.773 81.8063C587.481 84.286 586.972 85.9526 586.67 88.6818C586.241 94.6384 587.032 98.147 590.258 103.092C591.292 104.645 593.37 106.667 595.387 108.08C598.842 110.503 602.149 111.554 606.313 111.554C609.243 111.554 612.04 111.252 612.797 110.855C613.082 110.706 613.681 110.486 614.129 110.367C615.809 109.921 618.461 108.105 620.994 105.668C623.391 103.36 623.46 103.269 624.796 100.616C626.282 97.6658 626.726 96.222 626.983 93.5011C627.076 92.5178 627.205 91.6604 627.27 91.5958C627.53 91.3364 630.821 91.2976 631.126 91.5503C631.534 91.8885 631.507 92.7339 631.024 94.7459C630.338 98.5332 628.814 102.438 626.812 105.233C622.643 110.817 618.508 113.541 612.003 114.988C610.513 115.319 609.512 115.388 606.486 115.367C601.348 115.641 596.1 113.604 592.339 110.956Z" fill="#F3F4F6"/>
<path d="M59.108 25.1614C50.3635 27.5042 43.9015 34.0511 41.7153 42.8125C41.1366 45.1232 41.0402 46.1181 41.2009 49.7125C41.3938 54.2696 41.9082 56.3878 43.6443 59.7896C45.8626 64.1542 48.7881 67.171 53.3212 69.8026C57.0826 71.9849 60.2332 72.7872 65.2164 72.7872C69.6529 72.7872 72.8357 72.1133 76.1471 70.4765C78.3332 69.3854 78.494 68.7114 76.9508 67.2031C75.8577 66.144 75.7613 66.1119 74.7647 66.5291C69.8458 68.5189 69.3314 68.6473 65.3771 68.6473C62.4515 68.6473 61.1013 68.4868 59.751 68.0375C51.4565 65.2454 45.8947 58.3775 45.1231 50.0334C44.6409 44.8985 46.827 39.1218 50.8457 34.8856C57.3398 28.0819 66.5345 26.6056 75.0218 31.0344C77.8831 32.5428 81.4838 36.2976 83.1234 39.4427C86.1455 45.3157 86.274 51.0925 83.5092 57.2543L82.4804 59.5329L83.7021 60.7845C84.4094 61.4905 85.1488 62.0682 85.3417 62.0682C86.3383 62.0682 88.7174 56.3236 89.2961 52.5366C90.5177 44.5455 88.203 37.2925 82.5769 31.5479C79.8121 28.7558 76.8222 26.8623 73.0929 25.6107C70.8746 24.8405 69.9101 24.7121 66.0201 24.6158C62.2908 24.5516 61.1013 24.6158 59.108 25.1614Z" fill="#F3F4F6"/>
<path d="M122.153 25.1293C115.498 26.8302 109.229 31.933 106.367 38.0627C104.599 41.8176 104.02 44.9627 104.181 49.7125C104.31 53.1143 104.503 54.3659 105.21 56.4841C106.239 59.5329 107.332 61.5547 107.975 61.651C108.232 61.6831 109.036 61.2338 109.743 60.5919C110.965 59.5008 110.997 59.4687 110.579 58.4417C110.322 57.8641 109.711 56.1952 109.164 54.6869C107.332 49.552 107.943 43.5827 110.868 38.6404C115.24 31.2591 123.824 27.2475 131.894 28.82C141.313 30.6814 148.483 39.2502 148.483 48.5892C148.483 51.7022 147.775 54.5585 146.329 57.5752C144.689 60.945 140.606 64.9887 137.23 66.6254C133.694 68.3263 130.769 68.9361 127.168 68.7114C123.921 68.4868 122.249 68.0696 119.452 66.6896L117.555 65.7589L116.462 67.0426C114.983 68.7756 115.048 69.2891 116.912 70.2198C122.86 73.2044 130.511 73.7179 136.652 71.5035C143.275 69.0966 148.836 63.5445 151.183 57.0296C155.813 44.032 149.094 30.0395 136.105 25.6107C133.887 24.8405 132.955 24.7121 129.032 24.6158C125.464 24.5516 124.049 24.6479 122.153 25.1293Z" fill="#F3F4F6"/>
<path d="M61.8407 41.4966C59.0437 42.7804 57.5006 45.3478 57.5006 48.6855C57.5006 53.724 61.4549 57.1259 66.5988 56.484L68.3027 56.2594L70.9711 59.244C72.4499 60.8807 76.6293 65.4379 80.2622 69.3854L86.8527 76.5421L86.8849 80.2969L86.917 84.0518L84.5058 86.6192C83.1877 88.0313 82.0304 89.2508 81.9339 89.3471C81.8375 89.4434 81.0016 90.3741 80.0371 91.4332C79.0726 92.4922 77.4652 94.2252 76.5007 95.2843C75.5041 96.3434 73.3179 98.7182 71.614 100.58L68.4956 103.949L66.0844 103.853C63.1267 103.693 61.7121 104.142 59.976 105.682C58.2078 107.255 57.5006 108.924 57.5006 111.523C57.4684 119.964 68.4956 122.531 72.4821 115.021C72.9643 114.155 73.0929 113.256 73.0607 111.074L73.0286 108.25L78.6868 103.051C81.8053 100.227 86.3062 96.0224 88.7174 93.7759L93.1218 89.6681L94.8257 90.0211C96.0152 90.2457 97.1083 90.2778 98.33 90.0532L100.098 89.7322L101.706 91.2085C107.364 96.4717 111.64 100.387 115.851 104.206L120.674 108.603L120.545 111.01C120.481 113.128 120.577 113.674 121.317 115.214C124.114 120.927 132.537 120.83 135.43 115.086C136.909 112.197 136.202 108.089 133.887 105.843C132.119 104.174 130.286 103.628 127.103 103.885L124.757 104.046L123.696 102.89C123.117 102.216 119.516 98.3331 115.691 94.1931C111.897 90.0853 108.232 86.0736 107.557 85.3034L106.303 83.8913V80.2327L106.271 76.5742L111.897 70.5407C114.983 67.203 119.227 62.5817 121.349 60.271L125.175 56.0668L126.46 56.3556C129.997 57.1901 133.694 55.4891 135.398 52.2799C136.491 50.2901 136.395 46.6636 135.205 44.6738C133.662 42.0101 131.508 40.8869 128.1 40.8869C125.657 40.8869 123.953 41.6571 122.41 43.358C120.834 45.091 120.384 46.5673 120.577 49.5199L120.738 51.9589L118.745 53.724C114.276 57.7356 109.196 62.4212 102.67 68.4868L100.42 70.5728H96.6582L92.8968 70.5407L89.4247 67.3956C87.5279 65.6305 84.9238 63.2556 83.7021 62.1003C82.4483 60.9449 80.0693 58.7626 78.3975 57.2542C72.2249 51.7343 72.5464 52.1194 72.9321 50.8357C73.9609 47.2734 72.2892 43.2938 69.0743 41.6571C67.2096 40.6943 63.7375 40.6301 61.8407 41.4966Z" fill="#F3F4F6"/>
<path d="M59.1723 88.0313C50.685 90.1174 43.8694 96.9853 41.7154 105.715C40.783 109.309 40.9759 115.663 42.069 118.873C44.8981 127.185 51.1029 133.026 59.2688 135.112C62.6445 135.978 68.4634 135.882 71.7748 134.951C80.9052 132.384 87.5922 125.034 89.1996 115.856C90.0998 110.753 89.4247 105.586 87.2386 100.965C85.9847 98.3332 85.5668 98.1727 83.9593 99.6169C82.6734 100.772 82.6412 101.254 83.7021 103.404C86.1776 108.539 86.049 114.797 83.3164 120.477C82.4162 122.371 81.5803 123.494 79.3942 125.612C74.8611 130.105 70.1995 131.934 64.2519 131.613C57.7578 131.228 52.2281 128.051 48.531 122.531C41.8118 112.518 45.4447 99.1034 56.3754 93.5513C61.8086 90.8234 67.499 90.663 73.2215 93.102L75.8899 94.2574L77.1759 92.9416C78.076 92.075 78.4297 91.4974 78.3011 91.1123C78.0117 90.4383 74.411 88.8016 71.389 88.0313C68.2063 87.229 62.4837 87.229 59.1723 88.0313Z" fill="#F3F4F6"/>
<path d="M122.281 87.935C119.323 88.6732 115.048 90.7913 115.048 91.4973C115.048 92.2355 116.976 94.161 117.684 94.161C117.973 94.161 119.13 93.7117 120.256 93.1982C127.779 89.668 136.523 91.401 142.567 97.5308C151.633 106.806 149.961 121.376 139.031 128.468C126.46 136.652 109.55 128.147 108.135 112.935C107.878 110.079 108.586 106.421 109.936 103.404L110.965 101.189L109.743 99.9378C109.036 99.2317 108.232 98.654 107.943 98.654C107.235 98.654 105.338 102.89 104.631 105.939C103.988 108.763 103.956 114.091 104.567 116.979C106.399 125.58 113.151 132.672 121.735 134.983C125.367 135.946 131.347 135.946 134.787 134.951C142.631 132.769 148.708 127.12 151.183 119.803C154.269 110.625 152.244 101.254 145.75 94.6424C142.824 91.6578 139.931 89.8285 136.105 88.5127C133.823 87.7425 132.987 87.6141 128.872 87.5499C125.56 87.4857 123.663 87.6141 122.281 87.935Z" fill="#F3F4F6"/>
<path d="M202.006 80.2243C201.92 80.1711 201.759 80.0884 201.681 80.0569C201.653 80.0452 201.632 80.0347 201.635 80.0336C201.646 80.0301 201.793 80.0916 201.98 80.178C202.171 80.2657 202.177 80.2706 202.107 80.2709C202.087 80.271 202.068 80.2622 202.006 80.2243Z" fill="#FF0000"/>
<path d="M193.123 78.9314C178.007 111.723 165.574 138.885 165.506 139.224C165.37 139.767 165.608 140.004 166.797 140.445C167.612 140.784 168.427 141.021 168.631 141.021C168.801 141.021 169.752 139.292 170.703 137.19C172.232 133.799 180.113 116.708 213.981 43.1558C219.552 31.0159 224.138 20.9445 224.138 20.741C224.138 20.4019 221.624 19.2829 220.911 19.2829C220.707 19.2829 208.206 46.14 193.123 78.9314Z" fill="url(#paint0_linear_712_3)"/>
<defs>
<linearGradient id="paint0_linear_712_3" x1="194.805" y1="141.021" x2="194.805" y2="19.2829" gradientUnits="userSpaceOnUse">
<stop stop-color="#7523FC"/>
<stop offset="0.354167" stop-color="#EE2020"/>
<stop offset="0.682292" stop-color="#FD6B02"/>
<stop offset="1" stop-color="#FFEB33"/>
</linearGradient>
</defs>
</svg>
