<svg width="40" height="40" viewBox="0 0 40 40" fill="none" xmlns="http://www.w3.org/2000/svg">
<path d="M33.5481 39.7963C36.6844 38.9529 39.002 36.5961 39.7861 33.442C39.9936 32.6102 40.0282 32.252 39.9706 30.9581C39.9014 29.3175 39.7169 28.555 39.0942 27.3304C38.2986 25.7591 37.2494 24.6731 35.6236 23.7258C34.2745 22.9401 33.1445 22.6513 31.3573 22.6513C29.766 22.6513 28.6245 22.8939 27.4369 23.4831C26.6528 23.876 26.5952 24.1186 27.1486 24.6616C27.5407 25.0428 27.5752 25.0544 27.9327 24.9042C29.6969 24.1879 29.8814 24.1417 31.2996 24.1417C32.3489 24.1417 32.8332 24.1994 33.3174 24.3612C36.2923 25.3663 38.2871 27.8387 38.5638 30.8425C38.7368 32.6911 37.9527 34.7706 36.5114 36.2957C34.1822 38.7449 30.8845 39.2764 27.8404 37.6821C26.8142 37.1391 25.5228 35.7873 24.9348 34.6551C23.8509 32.5409 23.8048 30.4613 24.7964 28.2431L25.1654 27.4228L24.7272 26.9722C24.4735 26.718 24.2083 26.5101 24.1391 26.5101C23.7817 26.5101 22.9284 28.5781 22.7209 29.9414C22.2827 32.8181 23.1129 35.4292 25.1308 37.4972C26.1224 38.5023 27.1947 39.184 28.5323 39.6345C29.3279 39.9118 29.6738 39.958 31.069 39.9927C32.4065 40.0158 32.8332 39.9927 33.5481 39.7963Z" fill="#0F172A"/>
<path d="M10.9367 39.8078C13.3235 39.1955 15.572 37.3586 16.5982 35.1519C17.2324 33.8002 17.4399 32.668 17.3823 30.9581C17.3361 29.7334 17.267 29.2829 17.0133 28.5203C16.6443 27.4228 16.2523 26.6949 16.0217 26.6603C15.9294 26.6487 15.6411 26.8105 15.3875 27.0415C14.9493 27.4343 14.9378 27.4459 15.0877 27.8156C15.1799 28.0236 15.399 28.6243 15.595 29.1673C16.2523 31.0158 16.0332 33.1647 14.9839 34.9439C13.4158 37.6012 10.3371 39.0453 7.44294 38.4792C4.0645 37.8091 1.49319 34.7244 1.49319 31.3624C1.49319 30.2418 1.74686 29.2135 2.26573 28.1275C2.85379 26.9145 4.31817 25.4587 5.52888 24.8695C6.79723 24.2572 7.84651 24.0377 9.13793 24.1186C10.3025 24.1994 10.9021 24.3496 11.9053 24.8464L12.5856 25.1815L12.9776 24.7193C13.508 24.0955 13.4849 23.9106 12.8162 23.5756C10.683 22.5011 7.93876 22.3163 5.73642 23.1134C3.36114 23.9799 1.36635 25.9786 0.524624 28.3239C-1.13577 33.003 1.27411 38.0402 5.93244 39.6345C6.72805 39.9118 7.06243 39.958 8.46916 39.9927C9.74905 40.0158 10.2564 39.9811 10.9367 39.8078Z" fill="#0F172A"/>
<path d="M32.568 33.9157C33.5711 33.4536 34.1246 32.5293 34.1246 31.3278C34.1246 29.5139 32.7063 28.2893 30.8614 28.5203L30.2503 28.6012L29.2933 27.5268C28.7629 26.9376 27.2639 25.297 25.961 23.876L23.5972 21.2996L23.5742 18.5961L24.4389 17.6719C24.9117 17.1635 25.3268 16.7245 25.3614 16.6899C25.396 16.6552 25.6958 16.3201 26.0417 15.9389C26.3876 15.5576 26.9641 14.9338 27.31 14.5525C27.6675 14.1712 28.4516 13.3163 29.0627 12.6462L30.1811 11.4331L31.0459 11.4678C32.1067 11.5256 32.6141 11.3638 33.2367 10.8093C33.8709 10.2432 34.1246 9.64239 34.1246 8.70658C34.1361 5.66808 30.1811 4.74382 28.7514 7.44728C28.5784 7.75921 28.5323 8.0827 28.5438 8.86832L28.5553 9.88501L26.526 11.7566C25.4075 12.7733 23.7932 14.2868 22.9284 15.0955L21.3488 16.5743L20.7376 16.4472C20.311 16.3664 19.919 16.3548 19.4808 16.4357L18.8466 16.5512L18.2701 16.0198C16.2407 14.125 14.7072 12.7155 13.1967 11.3407L11.4671 9.75792L11.5132 8.89143C11.5363 8.12892 11.5017 7.93251 11.2365 7.37795C10.2333 5.32148 7.21233 5.35614 6.17458 7.42417C5.64418 8.46396 5.89785 9.94277 6.72805 10.7515C7.36223 11.3523 8.01947 11.5487 9.16099 11.4562L10.0027 11.3985L10.3832 11.8144C10.5908 12.057 11.8822 13.4549 13.2543 14.9453C14.6149 16.4241 15.9294 17.8683 16.1716 18.1456L16.6212 18.6539L16.6212 19.971L16.6328 21.288L14.6149 23.46C13.508 24.6616 11.986 26.3252 11.225 27.1571L9.85282 28.6705L9.3916 28.5666C8.12324 28.2662 6.79723 28.8785 6.18611 30.0338C5.79407 30.7501 5.82866 32.0556 6.25529 32.7719C6.80876 33.7308 7.58131 34.1352 8.80354 34.1352C9.67986 34.1352 10.291 33.8579 10.8444 33.2456C11.4094 32.6217 11.5709 32.0903 11.5017 31.0274L11.444 30.1493L12.1589 29.5139C13.7617 28.0698 15.5835 26.383 17.9242 24.1994L18.7313 23.4485L20.0804 23.4485L21.4295 23.46L22.6748 24.5923C23.3551 25.2277 24.289 26.0826 24.7272 26.4985C25.1769 26.9145 26.0302 27.7001 26.6297 28.2431C28.8436 30.2302 28.7283 30.0916 28.5899 30.5537C28.221 31.8361 28.8205 33.2687 29.9736 33.8579C30.6424 34.2045 31.8877 34.2276 32.568 33.9157Z" fill="#0F172A"/>
<path d="M33.525 17.1635C36.5691 16.4126 39.0135 13.9402 39.7861 10.7977C40.1205 9.50375 40.0513 7.21622 39.6592 6.06089C38.6446 3.06861 36.4192 0.965926 33.4904 0.214966C32.2797 -0.0969709 30.1927 -0.0623097 29.005 0.272734C25.7304 1.19699 23.332 3.84268 22.7555 7.1469C22.4326 8.98386 22.6748 10.8439 23.4588 12.5076C23.9085 13.455 24.0584 13.5127 24.635 12.9928C25.0962 12.5769 25.1077 12.4036 24.7272 11.6295C23.8394 9.78103 23.8855 7.52815 24.8656 5.48323C25.1884 4.80159 25.4882 4.39723 26.2723 3.63472C27.8981 2.01727 29.57 1.35873 31.7032 1.47427C34.0323 1.61291 36.0156 2.75667 37.3416 4.74383C39.7515 8.34843 38.4485 13.1777 34.5282 15.1764C32.5795 16.1584 30.5386 16.2162 28.4862 15.3381L27.5291 14.9222L27.0679 15.3959C26.745 15.7078 26.6182 15.9158 26.6643 16.0544C26.7681 16.297 28.0595 16.8863 29.1434 17.1635C30.2849 17.4524 32.3374 17.4524 33.525 17.1635Z" fill="#0F172A"/>
<path d="M10.8906 17.1982C11.9514 16.9325 13.4849 16.17 13.4849 15.9158C13.4849 15.6501 12.7931 14.9569 12.5394 14.9569C12.4357 14.9569 12.0206 15.1186 11.617 15.3035C8.91885 16.5743 5.78254 15.9504 3.6148 13.7438C0.363196 10.4049 0.962785 5.15974 4.88316 2.60648C9.3916 -0.339592 15.4567 2.72201 15.964 8.19824C16.0562 9.22647 15.8026 10.5435 15.3183 11.6295L14.9493 12.4267L15.3875 12.8773C15.6411 13.1315 15.9294 13.3394 16.0332 13.3394C16.2869 13.3394 16.9672 11.8144 17.2208 10.7168C17.4514 9.70016 17.463 7.78232 17.2439 6.74253C16.5867 3.64627 14.1652 1.09301 11.0866 0.261177C9.78364 -0.0854193 7.63896 -0.0854208 6.4052 0.272729C3.59175 1.05835 1.41248 3.09171 0.524626 5.72585C-0.582306 9.03007 0.144117 12.4036 2.47328 14.7836C3.52256 15.858 4.56031 16.5166 5.93244 16.9902C6.75111 17.2675 7.0509 17.3137 8.52681 17.3368C9.71446 17.3599 10.3948 17.3137 10.8906 17.1982Z" fill="#0F172A"/>
</svg>
